<svg width="202" height="257" viewBox="0 0 202 257" fill="none" xmlns="http://www.w3.org/2000/svg">
<path d="M2.5 241.5H0.5C0.5 242.605 1.39543 243.5 2.5 243.5L2.5 241.5ZM201.414 242.914C202.195 242.133 202.195 240.867 201.414 240.086L188.686 227.358C187.905 226.577 186.639 226.577 185.858 227.358C185.077 228.139 185.077 229.405 185.858 230.186L197.172 241.5L185.858 252.814C185.077 253.595 185.077 254.861 185.858 255.642C186.639 256.423 187.905 256.423 188.686 255.642L201.414 242.914ZM0.5 2.50833C0.5 3.6129 1.39543 4.50833 2.5 4.50833C3.60457 4.50833 4.5 3.6129 4.5 2.50833H0.5ZM4.5 14.5583C4.5 13.4538 3.60457 12.5583 2.5 12.5583C1.39543 12.5583 0.5 13.4538 0.5 14.5583H4.5ZM0.5 18.575C0.5 19.6796 1.39543 20.575 2.5 20.575C3.60457 20.575 4.5 19.6796 4.5 18.575H0.5ZM4.5 30.625C4.5 29.5204 3.60457 28.625 2.5 28.625C1.39543 28.625 0.5 29.5204 0.5 30.625H4.5ZM0.5 34.6417C0.5 35.7462 1.39543 36.6417 2.5 36.6417C3.60457 36.6417 4.5 35.7462 4.5 34.6417H0.5ZM4.5 46.6917C4.5 45.5871 3.60457 44.6917 2.5 44.6917C1.39543 44.6917 0.5 45.5871 0.5 46.6917H4.5ZM0.5 50.7083C0.5 51.8129 1.39543 52.7083 2.5 52.7083C3.60457 52.7083 4.5 51.8129 4.5 50.7083H0.5ZM4.5 62.7583C4.5 61.6538 3.60457 60.7583 2.5 60.7583C1.39543 60.7583 0.5 61.6538 0.5 62.7583H4.5ZM0.5 66.775C0.5 67.8796 1.39543 68.775 2.5 68.775C3.60457 68.775 4.5 67.8796 4.5 66.775H0.5ZM4.5 78.825C4.5 77.7204 3.60457 76.825 2.5 76.825C1.39543 76.825 0.5 77.7204 0.5 78.825H4.5ZM0.5 82.8417C0.5 83.9462 1.39543 84.8417 2.5 84.8417C3.60457 84.8417 4.5 83.9462 4.5 82.8417H0.5ZM4.5 94.8917C4.5 93.7871 3.60457 92.8917 2.5 92.8917C1.39543 92.8917 0.5 93.7871 0.5 94.8917H4.5ZM0.5 98.9083C0.5 100.013 1.39543 100.908 2.5 100.908C3.60457 100.908 4.5 100.013 4.5 98.9083H0.5ZM4.5 110.958C4.5 109.854 3.60457 108.958 2.5 108.958C1.39543 108.958 0.5 109.854 0.5 110.958H4.5ZM0.5 114.975C0.5 116.08 1.39543 116.975 2.5 116.975C3.60457 116.975 4.5 116.08 4.5 114.975H0.5ZM4.5 127.025C4.5 125.92 3.60457 125.025 2.5 125.025C1.39543 125.025 0.5 125.92 0.5 127.025H4.5ZM0.5 131.042C0.5 132.146 1.39543 133.042 2.5 133.042C3.60457 133.042 4.5 132.146 4.5 131.042H0.5ZM4.5 143.092C4.5 141.987 3.60457 141.092 2.5 141.092C1.39543 141.092 0.5 141.987 0.5 143.092H4.5ZM0.5 147.108C0.5 148.213 1.39543 149.108 2.5 149.108C3.60457 149.108 4.5 148.213 4.5 147.108H0.5ZM4.5 159.158C4.5 158.054 3.60457 157.158 2.5 157.158C1.39543 157.158 0.5 158.054 0.5 159.158H4.5ZM0.5 163.175C0.5 164.28 1.39543 165.175 2.5 165.175C3.60457 165.175 4.5 164.28 4.5 163.175H0.5ZM4.5 175.225C4.5 174.12 3.60457 173.225 2.5 173.225C1.39543 173.225 0.5 174.12 0.5 175.225H4.5ZM0.5 179.242C0.5 180.346 1.39543 181.242 2.5 181.242C3.60457 181.242 4.5 180.346 4.5 179.242H0.5ZM4.5 191.292C4.5 190.187 3.60457 189.292 2.5 189.292C1.39543 189.292 0.5 190.187 0.5 191.292H4.5ZM0.5 195.308C0.5 196.413 1.39543 197.308 2.5 197.308C3.60457 197.308 4.5 196.413 4.5 195.308H0.5ZM4.5 207.358C4.5 206.254 3.60457 205.358 2.5 205.358C1.39543 205.358 0.5 206.254 0.5 207.358H4.5ZM0.5 211.375C0.5 212.48 1.39543 213.375 2.5 213.375C3.60457 213.375 4.5 212.48 4.5 211.375H0.5ZM4.5 223.425C4.5 222.32 3.60457 221.425 2.5 221.425C1.39543 221.425 0.5 222.32 0.5 223.425H4.5ZM0.5 227.442C0.5 228.546 1.39543 229.442 2.5 229.442C3.60457 229.442 4.5 228.546 4.5 227.442H0.5ZM4.5 239.492C4.5 238.387 3.60457 237.492 2.5 237.492C1.39543 237.492 0.5 238.387 0.5 239.492H4.5ZM4.55729 243.5C5.66186 243.5 6.55729 242.605 6.55729 241.5C6.55729 240.395 5.66186 239.5 4.55729 239.5V243.5ZM16.901 239.5C15.7965 239.5 14.901 240.395 14.901 241.5C14.901 242.605 15.7965 243.5 16.901 243.5V239.5ZM21.0156 243.5C22.1202 243.5 23.0156 242.605 23.0156 241.5C23.0156 240.395 22.1202 239.5 21.0156 239.5V243.5ZM33.3594 239.5C32.2548 239.5 31.3594 240.395 31.3594 241.5C31.3594 242.605 32.2548 243.5 33.3594 243.5V239.5ZM37.474 243.5C38.5785 243.5 39.474 242.605 39.474 241.5C39.474 240.395 38.5785 239.5 37.474 239.5V243.5ZM49.8177 239.5C48.7131 239.5 47.8177 240.395 47.8177 241.5C47.8177 242.605 48.7131 243.5 49.8177 243.5V239.5ZM53.9323 243.5C55.0369 243.5 55.9323 242.605 55.9323 241.5C55.9323 240.395 55.0369 239.5 53.9323 239.5V243.5ZM66.276 239.5C65.1715 239.5 64.276 240.395 64.276 241.5C64.276 242.605 65.1715 243.5 66.276 243.5V239.5ZM70.3906 243.5C71.4952 243.5 72.3906 242.605 72.3906 241.5C72.3906 240.395 71.4952 239.5 70.3906 239.5V243.5ZM82.7344 239.5C81.6298 239.5 80.7344 240.395 80.7344 241.5C80.7344 242.605 81.6298 243.5 82.7344 243.5V239.5ZM86.849 243.5C87.9535 243.5 88.849 242.605 88.849 241.5C88.849 240.395 87.9535 239.5 86.849 239.5V243.5ZM99.1927 239.5C98.0881 239.5 97.1927 240.395 97.1927 241.5C97.1927 242.605 98.0881 243.5 99.1927 243.5V239.5ZM103.307 243.5C104.412 243.5 105.307 242.605 105.307 241.5C105.307 240.395 104.412 239.5 103.307 239.5V243.5ZM115.651 239.5C114.546 239.5 113.651 240.395 113.651 241.5C113.651 242.605 114.546 243.5 115.651 243.5V239.5ZM119.766 243.5C120.87 243.5 121.766 242.605 121.766 241.5C121.766 240.395 120.87 239.5 119.766 239.5V243.5ZM132.109 239.5C131.005 239.5 130.109 240.395 130.109 241.5C130.109 242.605 131.005 243.5 132.109 243.5V239.5ZM136.224 243.5C137.329 243.5 138.224 242.605 138.224 241.5C138.224 240.395 137.329 239.5 136.224 239.5V243.5ZM148.568 239.5C147.463 239.5 146.568 240.395 146.568 241.5C146.568 242.605 147.463 243.5 148.568 243.5V239.5ZM152.682 243.5C153.787 243.5 154.682 242.605 154.682 241.5C154.682 240.395 153.787 239.5 152.682 239.5V243.5ZM165.026 239.5C163.921 239.5 163.026 240.395 163.026 241.5C163.026 242.605 163.921 243.5 165.026 243.5V239.5ZM169.141 243.5C170.245 243.5 171.141 242.605 171.141 241.5C171.141 240.395 170.245 239.5 169.141 239.5V243.5ZM181.484 239.5C180.38 239.5 179.484 240.395 179.484 241.5C179.484 242.605 180.38 243.5 181.484 243.5V239.5ZM185.599 243.5C186.704 243.5 187.599 242.605 187.599 241.5C187.599 240.395 186.704 239.5 185.599 239.5V243.5ZM197.943 239.5C196.838 239.5 195.943 240.395 195.943 241.5C195.943 242.605 196.838 243.5 197.943 243.5V239.5ZM0.5 0.5V2.50833H4.5V0.5H0.5ZM0.5 14.5583V18.575H4.5V14.5583H0.5ZM0.5 30.625V34.6417H4.5V30.625H0.5ZM0.5 46.6917V50.7083H4.5V46.6917H0.5ZM0.5 62.7583V66.775H4.5V62.7583H0.5ZM0.5 78.825V82.8417H4.5V78.825H0.5ZM0.5 94.8917V98.9083H4.5V94.8917H0.5ZM0.5 110.958V114.975H4.5V110.958H0.5ZM0.5 127.025V131.042H4.5V127.025H0.5ZM0.5 143.092V147.108H4.5V143.092H0.5ZM0.5 159.158V163.175H4.5V159.158H0.5ZM0.5 175.225V179.242H4.5V175.225H0.5ZM0.5 191.292V195.308H4.5V191.292H0.5ZM0.5 207.358V211.375H4.5V207.358H0.5ZM0.5 223.425V227.442H4.5V223.425H0.5ZM0.5 239.492V241.5H4.5V239.492H0.5ZM2.5 243.5H4.55729V239.5H2.5V243.5ZM16.901 243.5H21.0156V239.5H16.901V243.5ZM33.3594 243.5H37.474V239.5H33.3594V243.5ZM49.8177 243.5H53.9323V239.5H49.8177V243.5ZM66.276 243.5H70.3906V239.5H66.276V243.5ZM82.7344 243.5H86.849V239.5H82.7344V243.5ZM99.1927 243.5H103.307V239.5H99.1927V243.5ZM115.651 243.5H119.766V239.5H115.651V243.5ZM132.109 243.5H136.224V239.5H132.109V243.5ZM148.568 243.5H152.682V239.5H148.568V243.5ZM165.026 243.5H169.141V239.5H165.026V243.5ZM181.484 243.5H185.599V239.5H181.484V243.5ZM197.943 243.5H200V239.5H197.943V243.5Z" fill="#DCDDDD"/>
</svg>
