<svg width="102" height="103" viewBox="0 0 102 103" fill="none" xmlns="http://www.w3.org/2000/svg">
<g clip-path="url(#clip0_123_820)">
<path d="M12.75 51.7019H17M51 13.4519V17.7019M85 51.7019H89.25M23.8 24.5019L26.775 27.4769M78.2 24.5019L75.225 27.4769" stroke="#242424" stroke-width="2" stroke-linecap="round" stroke-linejoin="round"/>
<path d="M38.25 68.7019C34.682 66.0259 32.0464 62.2951 30.7166 58.038C29.3868 53.7808 29.4301 49.2132 30.8405 44.9821C32.2509 40.7509 34.9568 37.0708 38.5749 34.463C42.193 31.8552 46.54 30.4519 51 30.4519C55.46 30.4519 59.807 31.8552 63.4251 34.463C67.0432 37.0708 69.7491 40.7509 71.1595 44.9821C72.5699 49.2132 72.6132 53.7808 71.2834 58.038C69.9536 62.2951 67.318 66.0259 63.75 68.7019C62.0907 70.3445 60.8413 72.3545 60.103 74.5696C59.3646 76.7846 59.1581 79.1423 59.5 81.4519C59.5 83.7062 58.6045 85.8683 57.0104 87.4623C55.4163 89.0564 53.2543 89.9519 51 89.9519C48.7457 89.9519 46.5837 89.0564 44.9896 87.4623C43.3955 85.8683 42.5 83.7062 42.5 81.4519C42.8419 79.1423 42.6354 76.7846 41.897 74.5696C41.1587 72.3545 39.9093 70.3445 38.25 68.7019Z" stroke="#242424" stroke-width="2" stroke-linecap="round" stroke-linejoin="round"/>
<path d="M41.2251 72.9519H60.7751" stroke="#242424" stroke-width="2" stroke-linecap="round" stroke-linejoin="round"/>
</g>
<defs>
<clipPath id="clip0_123_820">
<rect width="102" height="102" fill="white" transform="translate(0 0.701904)"/>
</clipPath>
</defs>
</svg>
