<svg width="102" height="103" viewBox="0 0 102 103" fill="none" xmlns="http://www.w3.org/2000/svg">
<g clip-path="url(#clip0_123_432)">
<path d="M17 81.4519C17 83.7062 17.8955 85.8683 19.4896 87.4623C21.0837 89.0564 23.2457 89.9519 25.5 89.9519C27.7543 89.9519 29.9163 89.0564 31.5104 87.4623C33.1045 85.8683 34 83.7062 34 81.4519C34 79.1976 33.1045 77.0356 31.5104 75.4415C29.9163 73.8474 27.7543 72.9519 25.5 72.9519C23.2457 72.9519 21.0837 73.8474 19.4896 75.4415C17.8955 77.0356 17 79.1976 17 81.4519Z" stroke="#242424" stroke-width="2" stroke-linecap="round" stroke-linejoin="round"/>
<path d="M63.75 81.4519C63.75 83.7062 64.6455 85.8683 66.2396 87.4623C67.8337 89.0564 69.9957 89.9519 72.25 89.9519C74.5043 89.9519 76.6663 89.0564 78.2604 87.4623C79.8545 85.8683 80.75 83.7062 80.75 81.4519C80.75 79.1976 79.8545 77.0356 78.2604 75.4415C76.6663 73.8474 74.5043 72.9519 72.25 72.9519C69.9957 72.9519 67.8337 73.8474 66.2396 75.4415C64.6455 77.0356 63.75 79.1976 63.75 81.4519Z" stroke="#242424" stroke-width="2" stroke-linecap="round" stroke-linejoin="round"/>
<path d="M72.25 72.9519H25.5V13.4519H17" stroke="#242424" stroke-width="2" stroke-linecap="round" stroke-linejoin="round"/>
<path d="M25.5 21.9519L85 26.2019L80.75 55.9519H25.5" stroke="#242424" stroke-width="2" stroke-linecap="round" stroke-linejoin="round"/>
</g>
<defs>
<clipPath id="clip0_123_432">
<rect width="102" height="102" fill="white" transform="translate(0 0.701904)"/>
</clipPath>
</defs>
</svg>
