<svg width="102" height="103" viewBox="0 0 102 103" fill="none" xmlns="http://www.w3.org/2000/svg">
<g clip-path="url(#clip0_123_582)">
<path d="M40.8637 85.7019H29.75C27.4957 85.7019 25.3337 84.8064 23.7396 83.2123C22.1455 81.6183 21.25 79.4562 21.25 77.2019V26.2019C21.25 23.9476 22.1455 21.7856 23.7396 20.1915C25.3337 18.5974 27.4957 17.7019 29.75 17.7019H63.75C66.0043 17.7019 68.1663 18.5974 69.7604 20.1915C71.3545 21.7856 72.25 23.9476 72.25 26.2019V60.2019" stroke="#242424" stroke-width="2" stroke-linecap="round" stroke-linejoin="round"/>
<path d="M59.5 81.4519L68 89.9519L85 72.9519" stroke="#242424" stroke-width="2" stroke-linecap="round" stroke-linejoin="round"/>
<path d="M38.25 34.7019H55.25" stroke="#242424" stroke-width="2" stroke-linecap="round" stroke-linejoin="round"/>
<path d="M38.25 51.7019H46.75" stroke="#242424" stroke-width="2" stroke-linecap="round" stroke-linejoin="round"/>
</g>
<defs>
<clipPath id="clip0_123_582">
<rect width="102" height="102" fill="white" transform="translate(0 0.701904)"/>
</clipPath>
</defs>
</svg>
