<svg width="102" height="103" viewBox="0 0 102 103" fill="none" xmlns="http://www.w3.org/2000/svg">
<g clip-path="url(#clip0_108_2070)">
<path d="M21.25 30.4519C21.25 34.9606 23.0411 39.2846 26.2292 42.4727C29.4173 45.6608 33.7413 47.4519 38.25 47.4519C42.7587 47.4519 47.0827 45.6608 50.2708 42.4727C53.4589 39.2846 55.25 34.9606 55.25 30.4519C55.25 25.9432 53.4589 21.6192 50.2708 18.4311C47.0827 15.243 42.7587 13.4519 38.25 13.4519C33.7413 13.4519 29.4173 15.243 26.2292 18.4311C23.0411 21.6192 21.25 25.9432 21.25 30.4519Z" stroke="#242424" stroke-width="2" stroke-linecap="round" stroke-linejoin="round"/>
<path d="M12.75 89.9519V81.4519C12.75 76.9432 14.5411 72.6192 17.7292 69.4311C20.9173 66.243 25.2413 64.4519 29.75 64.4519H46.75C51.2587 64.4519 55.5827 66.243 58.7708 69.4311C61.9589 72.6192 63.75 76.9432 63.75 81.4519V89.9519" stroke="#242424" stroke-width="2" stroke-linecap="round" stroke-linejoin="round"/>
<path d="M68 14.0044C71.6568 14.9407 74.8979 17.0674 77.2125 20.0492C79.527 23.0311 80.7833 26.6984 80.7833 30.4731C80.7833 34.2479 79.527 37.9152 77.2125 40.8971C74.8979 43.8789 71.6568 46.0056 68 46.9419" stroke="#242424" stroke-width="2" stroke-linecap="round" stroke-linejoin="round"/>
<path d="M89.25 89.9519V81.4519C89.2284 77.6998 87.9661 74.0603 85.6599 71.1006C83.3536 68.1409 80.133 66.0273 76.5 65.0894" stroke="#242424" stroke-width="2" stroke-linecap="round" stroke-linejoin="round"/>
</g>
<defs>
<clipPath id="clip0_108_2070">
<rect width="102" height="102" fill="white" transform="translate(0 0.701904)"/>
</clipPath>
</defs>
</svg>
