<svg width="246" height="271" viewBox="0 0 246 271" fill="none" xmlns="http://www.w3.org/2000/svg">
<circle cx="12.6504" cy="13.0271" r="12.5" fill="#FF5EAB"/>
<path d="M39.7363 16.5271L35.9004 6.41772H35.8379C35.8587 6.63127 35.877 6.89168 35.8926 7.19897C35.9082 7.50627 35.9212 7.8422 35.9316 8.20679C35.9421 8.56616 35.9473 8.93335 35.9473 9.30835V16.5271H34.7129V5.10522H36.6816L40.2988 14.6052H40.3535L44.0254 5.10522H45.9785V16.5271H44.666V9.2146C44.666 8.87606 44.6712 8.53752 44.6816 8.19897C44.6921 7.85522 44.7051 7.53231 44.7207 7.23022C44.7363 6.92293 44.752 6.65731 44.7676 6.43335H44.7051L40.8223 16.5271H39.7363ZM52.1113 7.82397C53.1322 7.82397 53.89 8.05314 54.3848 8.51147C54.8796 8.96981 55.127 9.70158 55.127 10.7068V16.5271H54.1816L53.9316 15.2615H53.8691C53.6296 15.574 53.3796 15.837 53.1191 16.0505C52.8587 16.2589 52.5566 16.4177 52.2129 16.5271C51.8743 16.6313 51.4577 16.6833 50.9629 16.6833C50.4421 16.6833 49.9785 16.5922 49.5723 16.4099C49.1712 16.2276 48.8535 15.9516 48.6191 15.5818C48.39 15.212 48.2754 14.7432 48.2754 14.1755C48.2754 13.3214 48.6139 12.6651 49.291 12.2068C49.9681 11.7485 50.9993 11.4985 52.3848 11.4568L53.8613 11.3943V10.8708C53.8613 10.1313 53.7025 9.61304 53.3848 9.31616C53.0671 9.01929 52.6191 8.87085 52.041 8.87085C51.5931 8.87085 51.166 8.93595 50.7598 9.06616C50.3535 9.19637 49.9681 9.35002 49.6035 9.5271L49.2051 8.54272C49.5905 8.34481 50.0332 8.17554 50.5332 8.03491C51.0332 7.89429 51.5592 7.82397 52.1113 7.82397ZM53.8457 12.3083L52.541 12.363C51.4733 12.4047 50.7207 12.5792 50.2832 12.8865C49.8457 13.1938 49.627 13.6287 49.627 14.1912C49.627 14.6807 49.7754 15.0427 50.0723 15.2771C50.3691 15.5115 50.7624 15.6287 51.252 15.6287C52.0124 15.6287 52.6348 15.4177 53.1191 14.9958C53.6035 14.574 53.8457 13.9412 53.8457 13.0974V12.3083ZM61.6895 7.80835C61.8613 7.80835 62.041 7.81877 62.2285 7.8396C62.416 7.85522 62.5827 7.87866 62.7285 7.90991L62.5645 9.11304C62.4238 9.07658 62.2676 9.04793 62.0957 9.0271C61.9238 9.00627 61.7624 8.99585 61.6113 8.99585C61.2676 8.99585 60.9421 9.06616 60.6348 9.20679C60.3327 9.3422 60.0671 9.54012 59.8379 9.80054C59.6087 10.0557 59.429 10.3656 59.2988 10.7302C59.1686 11.0896 59.1035 11.4906 59.1035 11.9333V16.5271H57.7988V7.9646H58.877L59.0176 9.54272H59.0723C59.2493 9.22502 59.4629 8.93595 59.7129 8.67554C59.9629 8.40991 60.252 8.19897 60.5801 8.04272C60.9134 7.88647 61.2832 7.80835 61.6895 7.80835ZM65.6348 4.37085V10.6833C65.6348 10.8917 65.627 11.1469 65.6113 11.449C65.5957 11.7458 65.5827 12.0089 65.5723 12.238H65.627C65.7363 12.1026 65.8952 11.9021 66.1035 11.6365C66.3171 11.3708 66.4967 11.1573 66.6426 10.9958L69.4863 7.9646H71.0098L67.5645 11.6208L71.2598 16.5271H69.6973L66.6738 12.4724L65.6348 13.4255V16.5271H64.3457V4.37085H65.6348ZM76.0488 7.80835C76.778 7.80835 77.403 7.96981 77.9238 8.29272C78.4447 8.61564 78.8431 9.06877 79.1191 9.6521C79.3952 10.2302 79.5332 10.9073 79.5332 11.6833V12.488H73.6191C73.6348 13.4932 73.8848 14.2589 74.3691 14.7849C74.8535 15.311 75.5358 15.574 76.416 15.574C76.9577 15.574 77.4368 15.5245 77.8535 15.4255C78.2702 15.3266 78.7025 15.1807 79.1504 14.988V16.1287C78.7181 16.3214 78.2884 16.462 77.8613 16.5505C77.4395 16.6391 76.9395 16.6833 76.3613 16.6833C75.5384 16.6833 74.8197 16.5167 74.2051 16.1833C73.5957 15.8448 73.1217 15.35 72.7832 14.699C72.4447 14.0479 72.2754 13.2511 72.2754 12.3083C72.2754 11.3865 72.429 10.5896 72.7363 9.91772C73.0488 9.24064 73.4863 8.71981 74.0488 8.35522C74.6165 7.99064 75.2832 7.80835 76.0488 7.80835ZM76.0332 8.87085C75.3405 8.87085 74.7884 9.09741 74.377 9.55054C73.9655 10.0037 73.7207 10.6365 73.6426 11.449H78.1738C78.1686 10.9386 78.0879 10.4906 77.9316 10.1052C77.7806 9.7146 77.5488 9.41252 77.2363 9.19897C76.9238 8.98022 76.5228 8.87085 76.0332 8.87085ZM84.502 15.6208C84.7155 15.6208 84.9342 15.6026 85.1582 15.5662C85.3822 15.5297 85.5645 15.4854 85.7051 15.4333V16.4412C85.554 16.5089 85.3431 16.5662 85.0723 16.613C84.8066 16.6599 84.5462 16.6833 84.291 16.6833C83.8379 16.6833 83.4264 16.6052 83.0566 16.449C82.6868 16.2875 82.39 16.0167 82.166 15.6365C81.9473 15.2563 81.8379 14.7302 81.8379 14.0583V8.98022H80.6191V8.34741L81.8457 7.8396L82.3613 5.98022H83.1426V7.9646H85.6504V8.98022H83.1426V14.0193C83.1426 14.5557 83.265 14.9568 83.5098 15.2224C83.7598 15.488 84.0905 15.6208 84.502 15.6208ZM88.7363 7.9646V16.5271H87.4395V7.9646H88.7363ZM88.1035 4.76147C88.3171 4.76147 88.4993 4.83179 88.6504 4.97241C88.8066 5.10783 88.8848 5.32137 88.8848 5.61304C88.8848 5.8995 88.8066 6.11304 88.6504 6.25366C88.4993 6.39429 88.3171 6.4646 88.1035 6.4646C87.8796 6.4646 87.6921 6.39429 87.541 6.25366C87.3952 6.11304 87.3223 5.8995 87.3223 5.61304C87.3223 5.32137 87.3952 5.10783 87.541 4.97241C87.6921 4.83179 87.8796 4.76147 88.1035 4.76147ZM95.541 7.80835C96.5566 7.80835 97.3249 8.05835 97.8457 8.55835C98.3665 9.05314 98.627 9.85002 98.627 10.949V16.5271H97.3457V11.0349C97.3457 10.3214 97.1816 9.78752 96.8535 9.43335C96.5306 9.07918 96.0332 8.9021 95.3613 8.9021C94.4134 8.9021 93.7467 9.17033 93.3613 9.70679C92.9759 10.2432 92.7832 11.0219 92.7832 12.0427V16.5271H91.4863V7.9646H92.5332L92.7285 9.19897H92.7988C92.9811 8.89689 93.2129 8.64429 93.4941 8.44116C93.7754 8.23283 94.0905 8.07658 94.4395 7.97241C94.7884 7.86304 95.1556 7.80835 95.541 7.80835ZM103.689 20.3708C102.564 20.3708 101.697 20.1599 101.088 19.738C100.479 19.3214 100.174 18.7354 100.174 17.9802C100.174 17.4438 100.343 16.9854 100.682 16.6052C101.025 16.225 101.499 15.9724 102.104 15.8474C101.88 15.7432 101.687 15.587 101.525 15.3787C101.369 15.1703 101.291 14.9307 101.291 14.6599C101.291 14.3474 101.377 14.074 101.549 13.8396C101.726 13.6 101.994 13.3708 102.354 13.1521C101.906 12.9698 101.541 12.6625 101.26 12.2302C100.984 11.7927 100.846 11.2849 100.846 10.7068C100.846 10.0922 100.973 9.56877 101.229 9.13647C101.484 8.69897 101.854 8.36564 102.338 8.13647C102.822 7.90731 103.408 7.79272 104.096 7.79272C104.247 7.79272 104.398 7.80054 104.549 7.81616C104.705 7.82658 104.854 7.84481 104.994 7.87085C105.135 7.89168 105.257 7.91772 105.361 7.94897H108.299V8.78491L106.721 8.98022C106.877 9.18335 107.007 9.42814 107.111 9.7146C107.215 10.0011 107.268 10.3188 107.268 10.6677C107.268 11.5219 106.979 12.2016 106.4 12.7068C105.822 13.2068 105.028 13.4568 104.018 13.4568C103.778 13.4568 103.533 13.436 103.283 13.3943C103.028 13.5349 102.833 13.6912 102.697 13.863C102.567 14.0349 102.502 14.2328 102.502 14.4568C102.502 14.6235 102.551 14.7563 102.65 14.8552C102.755 14.9542 102.903 15.0271 103.096 15.074C103.288 15.1156 103.52 15.1365 103.791 15.1365H105.299C106.231 15.1365 106.945 15.3318 107.439 15.7224C107.939 16.113 108.189 16.6833 108.189 17.4333C108.189 18.3813 107.804 19.1078 107.033 19.613C106.262 20.1182 105.148 20.3708 103.689 20.3708ZM103.729 19.3552C104.437 19.3552 105.023 19.2823 105.486 19.1365C105.955 18.9958 106.304 18.7901 106.533 18.5193C106.768 18.2537 106.885 17.936 106.885 17.5662C106.885 17.2224 106.807 16.962 106.65 16.7849C106.494 16.613 106.265 16.4985 105.963 16.4412C105.661 16.3787 105.291 16.3474 104.854 16.3474H103.369C102.984 16.3474 102.648 16.4073 102.361 16.5271C102.075 16.6469 101.854 16.824 101.697 17.0583C101.546 17.2927 101.471 17.5844 101.471 17.9333C101.471 18.3969 101.666 18.7485 102.057 18.988C102.447 19.2328 103.005 19.3552 103.729 19.3552ZM104.064 12.5115C104.684 12.5115 105.15 12.3552 105.463 12.0427C105.775 11.7302 105.932 11.2745 105.932 10.6755C105.932 10.0349 105.773 9.55575 105.455 9.23804C105.137 8.91512 104.669 8.75366 104.049 8.75366C103.455 8.75366 102.997 8.92033 102.674 9.25366C102.356 9.58179 102.197 10.0636 102.197 10.699C102.197 11.2823 102.359 11.7302 102.682 12.0427C103.005 12.3552 103.465 12.5115 104.064 12.5115Z" fill="#242424"/>
<circle cx="12.6504" cy="62.0271" r="12.5" fill="#FFC7AF"/>
<path d="M43.7832 59.7068C43.7832 60.9932 43.5488 62.0688 43.0801 62.9333C42.6113 63.7927 41.9316 64.4412 41.041 64.8787C40.1556 65.311 39.0801 65.5271 37.8145 65.5271H34.7129V54.1052H38.1582C39.3197 54.1052 40.3197 54.3188 41.1582 54.7458C41.9967 55.1677 42.6426 55.7953 43.0957 56.6287C43.554 57.4568 43.7832 58.4828 43.7832 59.7068ZM42.3848 59.7537C42.3848 58.7276 42.2129 57.8813 41.8691 57.2146C41.5306 56.5479 41.0306 56.0531 40.3691 55.7302C39.7129 55.4021 38.9082 55.238 37.9551 55.238H36.041V64.3865H37.6582C39.2311 64.3865 40.4108 63.9985 41.1973 63.2224C41.9889 62.4464 42.3848 61.2901 42.3848 59.7537ZM49.3301 56.824C50.3509 56.824 51.1087 57.0531 51.6035 57.5115C52.0983 57.9698 52.3457 58.7016 52.3457 59.7068V65.5271H51.4004L51.1504 64.2615H51.0879C50.8483 64.574 50.5983 64.837 50.3379 65.0505C50.0775 65.2589 49.7754 65.4177 49.4316 65.5271C49.0931 65.6313 48.6764 65.6833 48.1816 65.6833C47.6608 65.6833 47.1973 65.5922 46.791 65.4099C46.39 65.2276 46.0723 64.9516 45.8379 64.5818C45.6087 64.212 45.4941 63.7432 45.4941 63.1755C45.4941 62.3214 45.8327 61.6651 46.5098 61.2068C47.1868 60.7485 48.2181 60.4985 49.6035 60.4568L51.0801 60.3943V59.8708C51.0801 59.1313 50.9212 58.613 50.6035 58.3162C50.2858 58.0193 49.8379 57.8708 49.2598 57.8708C48.8118 57.8708 48.3848 57.936 47.9785 58.0662C47.5723 58.1964 47.1868 58.35 46.8223 58.5271L46.4238 57.5427C46.8092 57.3448 47.252 57.1755 47.752 57.0349C48.252 56.8943 48.778 56.824 49.3301 56.824ZM51.0645 61.3083L49.7598 61.363C48.6921 61.4047 47.9395 61.5792 47.502 61.8865C47.0645 62.1938 46.8457 62.6287 46.8457 63.1912C46.8457 63.6807 46.9941 64.0427 47.291 64.2771C47.5879 64.5115 47.9811 64.6287 48.4707 64.6287C49.2311 64.6287 49.8535 64.4177 50.3379 63.9958C50.8223 63.574 51.0645 62.9412 51.0645 62.0974V61.3083ZM57.7832 64.6208C57.9967 64.6208 58.2155 64.6026 58.4395 64.5662C58.6634 64.5297 58.8457 64.4854 58.9863 64.4333V65.4412C58.8353 65.5089 58.6243 65.5662 58.3535 65.613C58.0879 65.6599 57.8275 65.6833 57.5723 65.6833C57.1191 65.6833 56.7077 65.6052 56.3379 65.449C55.9681 65.2875 55.6712 65.0167 55.4473 64.6365C55.2285 64.2563 55.1191 63.7302 55.1191 63.0583V57.9802H53.9004V57.3474L55.127 56.8396L55.6426 54.9802H56.4238V56.9646H58.9316V57.9802H56.4238V63.0193C56.4238 63.5557 56.5462 63.9568 56.791 64.2224C57.041 64.488 57.3717 64.6208 57.7832 64.6208ZM63.9238 56.824C64.9447 56.824 65.7025 57.0531 66.1973 57.5115C66.6921 57.9698 66.9395 58.7016 66.9395 59.7068V65.5271H65.9941L65.7441 64.2615H65.6816C65.4421 64.574 65.1921 64.837 64.9316 65.0505C64.6712 65.2589 64.3691 65.4177 64.0254 65.5271C63.6868 65.6313 63.2702 65.6833 62.7754 65.6833C62.2546 65.6833 61.791 65.5922 61.3848 65.4099C60.9837 65.2276 60.666 64.9516 60.4316 64.5818C60.2025 64.212 60.0879 63.7432 60.0879 63.1755C60.0879 62.3214 60.4264 61.6651 61.1035 61.2068C61.7806 60.7485 62.8118 60.4985 64.1973 60.4568L65.6738 60.3943V59.8708C65.6738 59.1313 65.515 58.613 65.1973 58.3162C64.8796 58.0193 64.4316 57.8708 63.8535 57.8708C63.4056 57.8708 62.9785 57.936 62.5723 58.0662C62.166 58.1964 61.7806 58.35 61.416 58.5271L61.0176 57.5427C61.403 57.3448 61.8457 57.1755 62.3457 57.0349C62.8457 56.8943 63.3717 56.824 63.9238 56.824ZM65.6582 61.3083L64.3535 61.363C63.2858 61.4047 62.5332 61.5792 62.0957 61.8865C61.6582 62.1938 61.4395 62.6287 61.4395 63.1912C61.4395 63.6807 61.5879 64.0427 61.8848 64.2771C62.1816 64.5115 62.5749 64.6287 63.0645 64.6287C63.8249 64.6287 64.4473 64.4177 64.9316 63.9958C65.416 63.574 65.6582 62.9412 65.6582 62.0974V61.3083Z" fill="#242424"/>
<circle cx="12.6504" cy="111.027" r="12.5" fill="#C6D2FD"/>
<path d="M41.877 114.527L40.4707 110.902H35.8926L34.4941 114.527H33.1504L37.6191 103.058H38.8145L43.252 114.527H41.877ZM40.0723 109.722L38.7363 106.121C38.7051 106.027 38.653 105.873 38.5801 105.66C38.5124 105.446 38.4421 105.225 38.3691 104.996C38.2962 104.767 38.2363 104.582 38.1895 104.441C38.1374 104.655 38.0801 104.868 38.0176 105.082C37.9603 105.29 37.903 105.485 37.8457 105.668C37.7884 105.845 37.7389 105.996 37.6973 106.121L36.3379 109.722H40.0723ZM47.6895 114.683C46.6061 114.683 45.7467 114.314 45.1113 113.574C44.4811 112.834 44.166 111.735 44.166 110.277C44.166 108.803 44.4889 107.691 45.1348 106.941C45.7806 106.186 46.64 105.808 47.7129 105.808C48.166 105.808 48.5618 105.868 48.9004 105.988C49.2389 106.108 49.5306 106.269 49.7754 106.472C50.0202 106.67 50.2259 106.897 50.3926 107.152H50.4863C50.4655 106.991 50.4447 106.769 50.4238 106.488C50.403 106.207 50.3926 105.978 50.3926 105.801V102.371H51.6895V114.527H50.6426L50.4473 113.308H50.3926C50.2311 113.564 50.0254 113.795 49.7754 114.004C49.5306 114.212 49.2363 114.379 48.8926 114.504C48.554 114.623 48.153 114.683 47.6895 114.683ZM47.8926 113.605C48.8092 113.605 49.4577 113.345 49.8379 112.824C50.2181 112.303 50.4082 111.53 50.4082 110.504V110.269C50.4082 109.181 50.2259 108.345 49.8613 107.761C49.502 107.178 48.8457 106.886 47.8926 106.886C47.0957 106.886 46.4993 107.194 46.1035 107.808C45.7077 108.418 45.5098 109.251 45.5098 110.308C45.5098 111.36 45.7051 112.173 46.0957 112.746C46.4915 113.319 47.0905 113.605 47.8926 113.605ZM63.7363 105.808C64.679 105.808 65.39 106.056 65.8691 106.551C66.3483 107.04 66.5879 107.829 66.5879 108.918V114.527H65.3066V108.98C65.3066 108.288 65.1556 107.769 64.8535 107.426C64.5566 107.077 64.1139 106.902 63.5254 106.902C62.6973 106.902 62.0957 107.142 61.7207 107.621C61.3457 108.1 61.1582 108.806 61.1582 109.738V114.527H59.8691V108.98C59.8691 108.517 59.8014 108.131 59.666 107.824C59.5358 107.517 59.3379 107.288 59.0723 107.136C58.8118 106.98 58.4811 106.902 58.0801 106.902C57.5124 106.902 57.0566 107.019 56.7129 107.254C56.3691 107.488 56.1191 107.837 55.9629 108.301C55.8118 108.759 55.7363 109.324 55.7363 109.996V114.527H54.4395V105.965H55.4863L55.6816 107.176H55.752C55.9238 106.879 56.14 106.629 56.4004 106.426C56.6608 106.222 56.9525 106.069 57.2754 105.965C57.5983 105.86 57.9421 105.808 58.3066 105.808C58.9577 105.808 59.502 105.931 59.9395 106.176C60.3822 106.415 60.7025 106.782 60.9004 107.277H60.9707C61.252 106.782 61.6374 106.415 62.127 106.176C62.6165 105.931 63.153 105.808 63.7363 105.808ZM70.5488 105.965V114.527H69.252V105.965H70.5488ZM69.916 102.761C70.1296 102.761 70.3118 102.832 70.4629 102.972C70.6191 103.108 70.6973 103.321 70.6973 103.613C70.6973 103.899 70.6191 104.113 70.4629 104.254C70.3118 104.394 70.1296 104.465 69.916 104.465C69.6921 104.465 69.5046 104.394 69.3535 104.254C69.2077 104.113 69.1348 103.899 69.1348 103.613C69.1348 103.321 69.2077 103.108 69.3535 102.972C69.5046 102.832 69.6921 102.761 69.916 102.761ZM77.3535 105.808C78.3691 105.808 79.1374 106.058 79.6582 106.558C80.179 107.053 80.4395 107.85 80.4395 108.949V114.527H79.1582V109.035C79.1582 108.321 78.9941 107.788 78.666 107.433C78.3431 107.079 77.8457 106.902 77.1738 106.902C76.2259 106.902 75.5592 107.17 75.1738 107.707C74.7884 108.243 74.5957 109.022 74.5957 110.043V114.527H73.2988V105.965H74.3457L74.541 107.199H74.6113C74.7936 106.897 75.0254 106.644 75.3066 106.441C75.5879 106.233 75.903 106.077 76.252 105.972C76.6009 105.863 76.9681 105.808 77.3535 105.808Z" fill="#242424"/>
<circle cx="12.6504" cy="160.027" r="12.5" fill="#5DBED0"/>
<path d="M37.6973 152.105C39.1712 152.105 40.2467 152.394 40.9238 152.972C41.6061 153.545 41.9473 154.368 41.9473 155.441C41.9473 155.926 41.8665 156.386 41.7051 156.824C41.5488 157.256 41.2936 157.639 40.9395 157.972C40.5853 158.301 40.1191 158.561 39.541 158.754C38.9681 158.941 38.265 159.035 37.4316 159.035H36.041V163.527H34.7129V152.105H37.6973ZM37.5723 153.238H36.041V157.894H37.2832C38.0124 157.894 38.6191 157.816 39.1035 157.66C39.5931 157.504 39.9603 157.251 40.2051 156.902C40.4499 156.548 40.5723 156.079 40.5723 155.496C40.5723 154.735 40.3301 154.17 39.8457 153.801C39.3613 153.426 38.6035 153.238 37.5723 153.238ZM48.0332 154.808C48.2051 154.808 48.3848 154.819 48.5723 154.84C48.7598 154.855 48.9264 154.879 49.0723 154.91L48.9082 156.113C48.7676 156.077 48.6113 156.048 48.4395 156.027C48.2676 156.006 48.1061 155.996 47.9551 155.996C47.6113 155.996 47.2858 156.066 46.9785 156.207C46.6764 156.342 46.4108 156.54 46.1816 156.801C45.9525 157.056 45.7728 157.366 45.6426 157.73C45.5124 158.09 45.4473 158.491 45.4473 158.933V163.527H44.1426V154.965H45.2207L45.3613 156.543H45.416C45.5931 156.225 45.8066 155.936 46.0566 155.676C46.3066 155.41 46.5957 155.199 46.9238 155.043C47.2572 154.886 47.627 154.808 48.0332 154.808ZM58.0723 159.23C58.0723 159.933 57.9811 160.561 57.7988 161.113C57.6165 161.665 57.3535 162.131 57.0098 162.511C56.666 162.892 56.2493 163.183 55.7598 163.386C55.2754 163.584 54.7259 163.683 54.1113 163.683C53.5384 163.683 53.0124 163.584 52.5332 163.386C52.0592 163.183 51.6478 162.892 51.2988 162.511C50.9551 162.131 50.6868 161.665 50.4941 161.113C50.3066 160.561 50.2129 159.933 50.2129 159.23C50.2129 158.293 50.3717 157.496 50.6895 156.84C51.0072 156.178 51.4603 155.676 52.0488 155.332C52.6426 154.983 53.3483 154.808 54.166 154.808C54.9473 154.808 55.6296 154.983 56.2129 155.332C56.8014 155.681 57.2572 156.186 57.5801 156.847C57.9082 157.504 58.0723 158.298 58.0723 159.23ZM51.5566 159.23C51.5566 159.918 51.6478 160.514 51.8301 161.019C52.0124 161.524 52.2936 161.915 52.6738 162.191C53.054 162.467 53.5436 162.605 54.1426 162.605C54.7363 162.605 55.2233 162.467 55.6035 162.191C55.9889 161.915 56.2728 161.524 56.4551 161.019C56.6374 160.514 56.7285 159.918 56.7285 159.23C56.7285 158.548 56.6374 157.959 56.4551 157.465C56.2728 156.965 55.9915 156.579 55.6113 156.308C55.2311 156.038 54.7389 155.902 54.1348 155.902C53.2441 155.902 52.5905 156.196 52.1738 156.785C51.7624 157.373 51.5566 158.189 51.5566 159.23ZM63.3613 163.683C62.278 163.683 61.4186 163.314 60.7832 162.574C60.153 161.834 59.8379 160.735 59.8379 159.277C59.8379 157.803 60.1608 156.691 60.8066 155.941C61.4525 155.186 62.3118 154.808 63.3848 154.808C63.8379 154.808 64.2337 154.868 64.5723 154.988C64.9108 155.108 65.2025 155.269 65.4473 155.472C65.6921 155.67 65.8978 155.897 66.0645 156.152H66.1582C66.1374 155.991 66.1165 155.769 66.0957 155.488C66.0749 155.207 66.0645 154.978 66.0645 154.801V151.371H67.3613V163.527H66.3145L66.1191 162.308H66.0645C65.903 162.564 65.6973 162.795 65.4473 163.004C65.2025 163.212 64.9082 163.379 64.5645 163.504C64.2259 163.623 63.8249 163.683 63.3613 163.683ZM63.5645 162.605C64.4811 162.605 65.1296 162.345 65.5098 161.824C65.89 161.303 66.0801 160.53 66.0801 159.504V159.269C66.0801 158.181 65.8978 157.345 65.5332 156.761C65.1738 156.178 64.5176 155.886 63.5645 155.886C62.7676 155.886 62.1712 156.194 61.7754 156.808C61.3796 157.418 61.1816 158.251 61.1816 159.308C61.1816 160.36 61.377 161.173 61.7676 161.746C62.1634 162.319 62.7624 162.605 63.5645 162.605ZM77.1816 154.965V163.527H76.1191L75.9316 162.324H75.8613C75.6842 162.621 75.4551 162.871 75.1738 163.074C74.8926 163.277 74.5749 163.428 74.2207 163.527C73.8717 163.631 73.4993 163.683 73.1035 163.683C72.4264 163.683 71.8587 163.574 71.4004 163.355C70.9421 163.136 70.5957 162.798 70.3613 162.34C70.1322 161.881 70.0176 161.293 70.0176 160.574V154.965H71.3301V160.48C71.3301 161.194 71.4915 161.728 71.8145 162.082C72.1374 162.431 72.6296 162.605 73.291 162.605C73.9264 162.605 74.4316 162.485 74.8066 162.246C75.1868 162.006 75.4603 161.655 75.627 161.191C75.7936 160.722 75.877 160.149 75.877 159.472V154.965H77.1816ZM83.3535 163.683C82.5827 163.683 81.903 163.524 81.3145 163.207C80.7259 162.889 80.2676 162.405 79.9395 161.754C79.6113 161.103 79.4473 160.282 79.4473 159.293C79.4473 158.256 79.6191 157.41 79.9629 156.754C80.3118 156.092 80.791 155.603 81.4004 155.285C82.0098 154.967 82.7025 154.808 83.4785 154.808C83.9056 154.808 84.3171 154.853 84.7129 154.941C85.1139 155.024 85.4421 155.131 85.6973 155.261L85.3066 156.347C85.0462 156.243 84.7441 156.149 84.4004 156.066C84.0618 155.983 83.7441 155.941 83.4473 155.941C82.8535 155.941 82.3587 156.069 81.9629 156.324C81.5723 156.579 81.278 156.954 81.0801 157.449C80.8874 157.944 80.791 158.553 80.791 159.277C80.791 159.97 80.8848 160.561 81.0723 161.051C81.265 161.54 81.5488 161.915 81.9238 162.176C82.304 162.431 82.778 162.558 83.3457 162.558C83.7988 162.558 84.2077 162.511 84.5723 162.418C84.9368 162.319 85.2676 162.204 85.5645 162.074V163.23C85.278 163.376 84.9577 163.488 84.6035 163.566C84.2546 163.644 83.8379 163.683 83.3535 163.683ZM90.3613 162.621C90.5749 162.621 90.7936 162.603 91.0176 162.566C91.2415 162.53 91.4238 162.485 91.5645 162.433V163.441C91.4134 163.509 91.2025 163.566 90.9316 163.613C90.666 163.66 90.4056 163.683 90.1504 163.683C89.6973 163.683 89.2858 163.605 88.916 163.449C88.5462 163.288 88.2493 163.017 88.0254 162.636C87.8066 162.256 87.6973 161.73 87.6973 161.058V155.98H86.4785V155.347L87.7051 154.84L88.2207 152.98H89.002V154.965H91.5098V155.98H89.002V161.019C89.002 161.556 89.1243 161.957 89.3691 162.222C89.6191 162.488 89.9499 162.621 90.3613 162.621ZM100.502 163.683C99.4186 163.683 98.5592 163.314 97.9238 162.574C97.2936 161.834 96.9785 160.735 96.9785 159.277C96.9785 157.803 97.3014 156.691 97.9473 155.941C98.5931 155.186 99.4525 154.808 100.525 154.808C100.979 154.808 101.374 154.868 101.713 154.988C102.051 155.108 102.343 155.269 102.588 155.472C102.833 155.67 103.038 155.897 103.205 156.152H103.299C103.278 155.991 103.257 155.769 103.236 155.488C103.215 155.207 103.205 154.978 103.205 154.801V151.371H104.502V163.527H103.455L103.26 162.308H103.205C103.044 162.564 102.838 162.795 102.588 163.004C102.343 163.212 102.049 163.379 101.705 163.504C101.367 163.623 100.965 163.683 100.502 163.683ZM100.705 162.605C101.622 162.605 102.27 162.345 102.65 161.824C103.031 161.303 103.221 160.53 103.221 159.504V159.269C103.221 158.181 103.038 157.345 102.674 156.761C102.314 156.178 101.658 155.886 100.705 155.886C99.9082 155.886 99.3118 156.194 98.916 156.808C98.5202 157.418 98.3223 158.251 98.3223 159.308C98.3223 160.36 98.5176 161.173 98.9082 161.746C99.304 162.319 99.903 162.605 100.705 162.605ZM110.549 154.808C111.278 154.808 111.903 154.97 112.424 155.293C112.945 155.616 113.343 156.069 113.619 156.652C113.895 157.23 114.033 157.907 114.033 158.683V159.488H108.119C108.135 160.493 108.385 161.259 108.869 161.785C109.354 162.311 110.036 162.574 110.916 162.574C111.458 162.574 111.937 162.524 112.354 162.426C112.77 162.327 113.202 162.181 113.65 161.988V163.129C113.218 163.321 112.788 163.462 112.361 163.551C111.939 163.639 111.439 163.683 110.861 163.683C110.038 163.683 109.32 163.517 108.705 163.183C108.096 162.845 107.622 162.35 107.283 161.699C106.945 161.048 106.775 160.251 106.775 159.308C106.775 158.386 106.929 157.59 107.236 156.918C107.549 156.241 107.986 155.72 108.549 155.355C109.117 154.991 109.783 154.808 110.549 154.808ZM110.533 155.871C109.84 155.871 109.288 156.097 108.877 156.551C108.465 157.004 108.221 157.636 108.143 158.449H112.674C112.669 157.939 112.588 157.491 112.432 157.105C112.281 156.715 112.049 156.413 111.736 156.199C111.424 155.98 111.023 155.871 110.533 155.871ZM118.119 163.527L114.869 154.965H116.26L118.143 160.144C118.273 160.498 118.406 160.889 118.541 161.316C118.676 161.743 118.77 162.087 118.822 162.347H118.877C118.939 162.087 119.044 161.743 119.189 161.316C119.335 160.884 119.468 160.493 119.588 160.144L121.471 154.965H122.861L119.604 163.527H118.119ZM127.533 154.808C128.262 154.808 128.887 154.97 129.408 155.293C129.929 155.616 130.327 156.069 130.604 156.652C130.88 157.23 131.018 157.907 131.018 158.683V159.488H125.104C125.119 160.493 125.369 161.259 125.854 161.785C126.338 162.311 127.02 162.574 127.9 162.574C128.442 162.574 128.921 162.524 129.338 162.426C129.755 162.327 130.187 162.181 130.635 161.988V163.129C130.202 163.321 129.773 163.462 129.346 163.551C128.924 163.639 128.424 163.683 127.846 163.683C127.023 163.683 126.304 163.517 125.689 163.183C125.08 162.845 124.606 162.35 124.268 161.699C123.929 161.048 123.76 160.251 123.76 159.308C123.76 158.386 123.913 157.59 124.221 156.918C124.533 156.241 124.971 155.72 125.533 155.355C126.101 154.991 126.768 154.808 127.533 154.808ZM127.518 155.871C126.825 155.871 126.273 156.097 125.861 156.551C125.45 157.004 125.205 157.636 125.127 158.449H129.658C129.653 157.939 129.572 157.491 129.416 157.105C129.265 156.715 129.033 156.413 128.721 156.199C128.408 155.98 128.007 155.871 127.518 155.871ZM134.525 163.527H133.221V151.371H134.525V163.527ZM144.65 159.23C144.65 159.933 144.559 160.561 144.377 161.113C144.195 161.665 143.932 162.131 143.588 162.511C143.244 162.892 142.827 163.183 142.338 163.386C141.854 163.584 141.304 163.683 140.689 163.683C140.117 163.683 139.59 163.584 139.111 163.386C138.637 163.183 138.226 162.892 137.877 162.511C137.533 162.131 137.265 161.665 137.072 161.113C136.885 160.561 136.791 159.933 136.791 159.23C136.791 158.293 136.95 157.496 137.268 156.84C137.585 156.178 138.038 155.676 138.627 155.332C139.221 154.983 139.926 154.808 140.744 154.808C141.525 154.808 142.208 154.983 142.791 155.332C143.38 155.681 143.835 156.186 144.158 156.847C144.486 157.504 144.65 158.298 144.65 159.23ZM138.135 159.23C138.135 159.918 138.226 160.514 138.408 161.019C138.59 161.524 138.872 161.915 139.252 162.191C139.632 162.467 140.122 162.605 140.721 162.605C141.314 162.605 141.801 162.467 142.182 162.191C142.567 161.915 142.851 161.524 143.033 161.019C143.215 160.514 143.307 159.918 143.307 159.23C143.307 158.548 143.215 157.959 143.033 157.465C142.851 156.965 142.57 156.579 142.189 156.308C141.809 156.038 141.317 155.902 140.713 155.902C139.822 155.902 139.169 156.196 138.752 156.785C138.34 157.373 138.135 158.189 138.135 159.23ZM150.916 154.808C151.984 154.808 152.835 155.176 153.471 155.91C154.106 156.644 154.424 157.748 154.424 159.222C154.424 160.196 154.278 161.014 153.986 161.676C153.695 162.337 153.283 162.837 152.752 163.176C152.226 163.514 151.604 163.683 150.885 163.683C150.432 163.683 150.033 163.623 149.689 163.504C149.346 163.384 149.051 163.222 148.807 163.019C148.562 162.816 148.359 162.595 148.197 162.355H148.104C148.119 162.558 148.137 162.803 148.158 163.09C148.184 163.376 148.197 163.626 148.197 163.84V167.355H146.893V154.965H147.963L148.135 156.23H148.197C148.364 155.97 148.567 155.733 148.807 155.519C149.046 155.301 149.338 155.129 149.682 155.004C150.031 154.873 150.442 154.808 150.916 154.808ZM150.689 155.902C150.096 155.902 149.617 156.017 149.252 156.246C148.893 156.475 148.63 156.819 148.463 157.277C148.296 157.73 148.208 158.301 148.197 158.988V159.238C148.197 159.962 148.275 160.574 148.432 161.074C148.593 161.574 148.856 161.954 149.221 162.215C149.59 162.475 150.085 162.605 150.705 162.605C151.236 162.605 151.679 162.462 152.033 162.176C152.387 161.889 152.65 161.491 152.822 160.98C152.999 160.465 153.088 159.873 153.088 159.207C153.088 158.196 152.89 157.394 152.494 156.801C152.104 156.202 151.502 155.902 150.689 155.902ZM165.986 154.808C166.929 154.808 167.64 155.056 168.119 155.551C168.598 156.04 168.838 156.829 168.838 157.918V163.527H167.557V157.98C167.557 157.288 167.406 156.769 167.104 156.426C166.807 156.077 166.364 155.902 165.775 155.902C164.947 155.902 164.346 156.142 163.971 156.621C163.596 157.1 163.408 157.806 163.408 158.738V163.527H162.119V157.98C162.119 157.517 162.051 157.131 161.916 156.824C161.786 156.517 161.588 156.288 161.322 156.136C161.062 155.98 160.731 155.902 160.33 155.902C159.762 155.902 159.307 156.019 158.963 156.254C158.619 156.488 158.369 156.837 158.213 157.301C158.062 157.759 157.986 158.324 157.986 158.996V163.527H156.689V154.965H157.736L157.932 156.176H158.002C158.174 155.879 158.39 155.629 158.65 155.426C158.911 155.222 159.202 155.069 159.525 154.965C159.848 154.86 160.192 154.808 160.557 154.808C161.208 154.808 161.752 154.931 162.189 155.176C162.632 155.415 162.952 155.782 163.15 156.277H163.221C163.502 155.782 163.887 155.415 164.377 155.176C164.867 154.931 165.403 154.808 165.986 154.808ZM174.799 154.808C175.528 154.808 176.153 154.97 176.674 155.293C177.195 155.616 177.593 156.069 177.869 156.652C178.145 157.23 178.283 157.907 178.283 158.683V159.488H172.369C172.385 160.493 172.635 161.259 173.119 161.785C173.604 162.311 174.286 162.574 175.166 162.574C175.708 162.574 176.187 162.524 176.604 162.426C177.02 162.327 177.452 162.181 177.9 161.988V163.129C177.468 163.321 177.038 163.462 176.611 163.551C176.189 163.639 175.689 163.683 175.111 163.683C174.288 163.683 173.57 163.517 172.955 163.183C172.346 162.845 171.872 162.35 171.533 161.699C171.195 161.048 171.025 160.251 171.025 159.308C171.025 158.386 171.179 157.59 171.486 156.918C171.799 156.241 172.236 155.72 172.799 155.355C173.367 154.991 174.033 154.808 174.799 154.808ZM174.783 155.871C174.09 155.871 173.538 156.097 173.127 156.551C172.715 157.004 172.471 157.636 172.393 158.449H176.924C176.919 157.939 176.838 157.491 176.682 157.105C176.531 156.715 176.299 156.413 175.986 156.199C175.674 155.98 175.273 155.871 174.783 155.871ZM184.541 154.808C185.557 154.808 186.325 155.058 186.846 155.558C187.367 156.053 187.627 156.85 187.627 157.949V163.527H186.346V158.035C186.346 157.321 186.182 156.788 185.854 156.433C185.531 156.079 185.033 155.902 184.361 155.902C183.413 155.902 182.747 156.17 182.361 156.707C181.976 157.243 181.783 158.022 181.783 159.043V163.527H180.486V154.965H181.533L181.729 156.199H181.799C181.981 155.897 182.213 155.644 182.494 155.441C182.775 155.233 183.09 155.077 183.439 154.972C183.788 154.863 184.156 154.808 184.541 154.808ZM193.064 162.621C193.278 162.621 193.497 162.603 193.721 162.566C193.945 162.53 194.127 162.485 194.268 162.433V163.441C194.117 163.509 193.906 163.566 193.635 163.613C193.369 163.66 193.109 163.683 192.854 163.683C192.4 163.683 191.989 163.605 191.619 163.449C191.249 163.288 190.952 163.017 190.729 162.636C190.51 162.256 190.4 161.73 190.4 161.058V155.98H189.182V155.347L190.408 154.84L190.924 152.98H191.705V154.965H194.213V155.98H191.705V161.019C191.705 161.556 191.827 161.957 192.072 162.222C192.322 162.488 192.653 162.621 193.064 162.621Z" fill="#242424"/>
<circle cx="12.6504" cy="209.027" r="12.5" fill="#CAE0ED"/>
<path d="M34.7129 212.527V201.105H36.041V211.34H41.1113V212.527H34.7129ZM46.1738 203.808C46.903 203.808 47.528 203.97 48.0488 204.293C48.5697 204.616 48.9681 205.069 49.2441 205.652C49.5202 206.23 49.6582 206.907 49.6582 207.683V208.488H43.7441C43.7598 209.493 44.0098 210.259 44.4941 210.785C44.9785 211.311 45.6608 211.574 46.541 211.574C47.0827 211.574 47.5618 211.524 47.9785 211.426C48.3952 211.327 48.8275 211.181 49.2754 210.988V212.129C48.8431 212.321 48.4134 212.462 47.9863 212.551C47.5645 212.639 47.0645 212.683 46.4863 212.683C45.6634 212.683 44.9447 212.517 44.3301 212.183C43.7207 211.845 43.2467 211.35 42.9082 210.699C42.5697 210.048 42.4004 209.251 42.4004 208.308C42.4004 207.386 42.554 206.59 42.8613 205.918C43.1738 205.241 43.6113 204.72 44.1738 204.355C44.7415 203.991 45.4082 203.808 46.1738 203.808ZM46.1582 204.871C45.4655 204.871 44.9134 205.097 44.502 205.551C44.0905 206.004 43.8457 206.636 43.7676 207.449H48.2988C48.2936 206.939 48.2129 206.491 48.0566 206.105C47.9056 205.715 47.6738 205.413 47.3613 205.199C47.0488 204.98 46.6478 204.871 46.1582 204.871ZM54.252 216.371C53.127 216.371 52.2598 216.16 51.6504 215.738C51.041 215.321 50.7363 214.735 50.7363 213.98C50.7363 213.444 50.9056 212.985 51.2441 212.605C51.5879 212.225 52.0618 211.972 52.666 211.847C52.4421 211.743 52.2493 211.587 52.0879 211.379C51.9316 211.17 51.8535 210.931 51.8535 210.66C51.8535 210.347 51.9395 210.074 52.1113 209.84C52.2884 209.6 52.5566 209.371 52.916 209.152C52.4681 208.97 52.1035 208.663 51.8223 208.23C51.5462 207.793 51.4082 207.285 51.4082 206.707C51.4082 206.092 51.5358 205.569 51.791 205.136C52.0462 204.699 52.416 204.366 52.9004 204.136C53.3848 203.907 53.9707 203.793 54.6582 203.793C54.8092 203.793 54.9603 203.801 55.1113 203.816C55.2676 203.827 55.416 203.845 55.5566 203.871C55.6973 203.892 55.8197 203.918 55.9238 203.949H58.8613V204.785L57.2832 204.98C57.4395 205.183 57.5697 205.428 57.6738 205.715C57.778 206.001 57.8301 206.319 57.8301 206.668C57.8301 207.522 57.541 208.202 56.9629 208.707C56.3848 209.207 55.5905 209.457 54.5801 209.457C54.3405 209.457 54.0957 209.436 53.8457 209.394C53.5905 209.535 53.3952 209.691 53.2598 209.863C53.1296 210.035 53.0645 210.233 53.0645 210.457C53.0645 210.623 53.1139 210.756 53.2129 210.855C53.3171 210.954 53.4655 211.027 53.6582 211.074C53.8509 211.116 54.0827 211.136 54.3535 211.136H55.8613C56.7936 211.136 57.5072 211.332 58.002 211.722C58.502 212.113 58.752 212.683 58.752 213.433C58.752 214.381 58.3665 215.108 57.5957 215.613C56.8249 216.118 55.7103 216.371 54.252 216.371ZM54.291 215.355C54.9993 215.355 55.5853 215.282 56.0488 215.136C56.5176 214.996 56.8665 214.79 57.0957 214.519C57.3301 214.254 57.4473 213.936 57.4473 213.566C57.4473 213.222 57.3691 212.962 57.2129 212.785C57.0566 212.613 56.8275 212.498 56.5254 212.441C56.2233 212.379 55.8535 212.347 55.416 212.347H53.9316C53.5462 212.347 53.2103 212.407 52.9238 212.527C52.6374 212.647 52.416 212.824 52.2598 213.058C52.1087 213.293 52.0332 213.584 52.0332 213.933C52.0332 214.397 52.2285 214.748 52.6191 214.988C53.0098 215.233 53.5671 215.355 54.291 215.355ZM54.627 208.511C55.2467 208.511 55.7129 208.355 56.0254 208.043C56.3379 207.73 56.4941 207.274 56.4941 206.676C56.4941 206.035 56.3353 205.556 56.0176 205.238C55.6999 204.915 55.2311 204.754 54.6113 204.754C54.0176 204.754 53.5592 204.92 53.2363 205.254C52.9186 205.582 52.7598 206.064 52.7598 206.699C52.7598 207.282 52.9212 207.73 53.2441 208.043C53.5671 208.355 54.028 208.511 54.627 208.511ZM63.752 203.824C64.7728 203.824 65.5306 204.053 66.0254 204.511C66.5202 204.97 66.7676 205.702 66.7676 206.707V212.527H65.8223L65.5723 211.261H65.5098C65.2702 211.574 65.0202 211.837 64.7598 212.051C64.4993 212.259 64.1973 212.418 63.8535 212.527C63.515 212.631 63.0983 212.683 62.6035 212.683C62.0827 212.683 61.6191 212.592 61.2129 212.41C60.8118 212.228 60.4941 211.952 60.2598 211.582C60.0306 211.212 59.916 210.743 59.916 210.176C59.916 209.321 60.2546 208.665 60.9316 208.207C61.6087 207.748 62.64 207.498 64.0254 207.457L65.502 207.394V206.871C65.502 206.131 65.3431 205.613 65.0254 205.316C64.7077 205.019 64.2598 204.871 63.6816 204.871C63.2337 204.871 62.8066 204.936 62.4004 205.066C61.9941 205.196 61.6087 205.35 61.2441 205.527L60.8457 204.543C61.2311 204.345 61.6738 204.176 62.1738 204.035C62.6738 203.894 63.1999 203.824 63.752 203.824ZM65.4863 208.308L64.1816 208.363C63.1139 208.405 62.3613 208.579 61.9238 208.886C61.4863 209.194 61.2676 209.629 61.2676 210.191C61.2676 210.681 61.416 211.043 61.7129 211.277C62.0098 211.511 62.403 211.629 62.8926 211.629C63.653 211.629 64.2754 211.418 64.7598 210.996C65.2441 210.574 65.4863 209.941 65.4863 209.097V208.308ZM70.7441 212.527H69.4395V200.371H70.7441V212.527ZM80.8457 203.824C81.8665 203.824 82.6243 204.053 83.1191 204.511C83.6139 204.97 83.8613 205.702 83.8613 206.707V212.527H82.916L82.666 211.261H82.6035C82.3639 211.574 82.1139 211.837 81.8535 212.051C81.5931 212.259 81.291 212.418 80.9473 212.527C80.6087 212.631 80.1921 212.683 79.6973 212.683C79.1764 212.683 78.7129 212.592 78.3066 212.41C77.9056 212.228 77.5879 211.952 77.3535 211.582C77.1243 211.212 77.0098 210.743 77.0098 210.176C77.0098 209.321 77.3483 208.665 78.0254 208.207C78.7025 207.748 79.7337 207.498 81.1191 207.457L82.5957 207.394V206.871C82.5957 206.131 82.4368 205.613 82.1191 205.316C81.8014 205.019 81.3535 204.871 80.7754 204.871C80.3275 204.871 79.9004 204.936 79.4941 205.066C79.0879 205.196 78.7025 205.35 78.3379 205.527L77.9395 204.543C78.3249 204.345 78.7676 204.176 79.2676 204.035C79.7676 203.894 80.2936 203.824 80.8457 203.824ZM82.5801 208.308L81.2754 208.363C80.2077 208.405 79.4551 208.579 79.0176 208.886C78.5801 209.194 78.3613 209.629 78.3613 210.191C78.3613 210.681 78.5098 211.043 78.8066 211.277C79.1035 211.511 79.4967 211.629 79.9863 211.629C80.7467 211.629 81.3691 211.418 81.8535 210.996C82.3379 210.574 82.5801 209.941 82.5801 209.097V208.308ZM90.5879 203.808C91.6035 203.808 92.3717 204.058 92.8926 204.558C93.4134 205.053 93.6738 205.85 93.6738 206.949V212.527H92.3926V207.035C92.3926 206.321 92.2285 205.788 91.9004 205.433C91.5775 205.079 91.0801 204.902 90.4082 204.902C89.4603 204.902 88.7936 205.17 88.4082 205.707C88.0228 206.243 87.8301 207.022 87.8301 208.043V212.527H86.5332V203.965H87.5801L87.7754 205.199H87.8457C88.028 204.897 88.2598 204.644 88.541 204.441C88.8223 204.233 89.1374 204.077 89.4863 203.972C89.8353 203.863 90.2025 203.808 90.5879 203.808ZM99.3926 212.683C98.3092 212.683 97.4499 212.314 96.8145 211.574C96.1842 210.834 95.8691 209.735 95.8691 208.277C95.8691 206.803 96.1921 205.691 96.8379 204.941C97.4837 204.186 98.3431 203.808 99.416 203.808C99.8691 203.808 100.265 203.868 100.604 203.988C100.942 204.108 101.234 204.269 101.479 204.472C101.723 204.67 101.929 204.897 102.096 205.152H102.189C102.169 204.991 102.148 204.769 102.127 204.488C102.106 204.207 102.096 203.978 102.096 203.801V200.371H103.393V212.527H102.346L102.15 211.308H102.096C101.934 211.564 101.729 211.795 101.479 212.004C101.234 212.212 100.939 212.379 100.596 212.504C100.257 212.623 99.8561 212.683 99.3926 212.683ZM99.5957 211.605C100.512 211.605 101.161 211.345 101.541 210.824C101.921 210.303 102.111 209.53 102.111 208.504V208.269C102.111 207.181 101.929 206.345 101.564 205.761C101.205 205.178 100.549 204.886 99.5957 204.886C98.7988 204.886 98.2025 205.194 97.8066 205.808C97.4108 206.418 97.2129 207.251 97.2129 208.308C97.2129 209.36 97.4082 210.173 97.7988 210.746C98.1947 211.319 98.7936 211.605 99.5957 211.605ZM117.682 208.23C117.682 208.933 117.59 209.561 117.408 210.113C117.226 210.665 116.963 211.131 116.619 211.511C116.275 211.892 115.859 212.183 115.369 212.386C114.885 212.584 114.335 212.683 113.721 212.683C113.148 212.683 112.622 212.584 112.143 212.386C111.669 212.183 111.257 211.892 110.908 211.511C110.564 211.131 110.296 210.665 110.104 210.113C109.916 209.561 109.822 208.933 109.822 208.23C109.822 207.293 109.981 206.496 110.299 205.84C110.617 205.178 111.07 204.676 111.658 204.332C112.252 203.983 112.958 203.808 113.775 203.808C114.557 203.808 115.239 203.983 115.822 204.332C116.411 204.681 116.867 205.186 117.189 205.847C117.518 206.504 117.682 207.298 117.682 208.23ZM111.166 208.23C111.166 208.918 111.257 209.514 111.439 210.019C111.622 210.524 111.903 210.915 112.283 211.191C112.663 211.467 113.153 211.605 113.752 211.605C114.346 211.605 114.833 211.467 115.213 211.191C115.598 210.915 115.882 210.524 116.064 210.019C116.247 209.514 116.338 208.918 116.338 208.23C116.338 207.548 116.247 206.959 116.064 206.465C115.882 205.965 115.601 205.579 115.221 205.308C114.84 205.038 114.348 204.902 113.744 204.902C112.854 204.902 112.2 205.196 111.783 205.785C111.372 206.373 111.166 207.189 111.166 208.23ZM123.947 203.808C125.015 203.808 125.867 204.176 126.502 204.91C127.137 205.644 127.455 206.748 127.455 208.222C127.455 209.196 127.309 210.014 127.018 210.676C126.726 211.337 126.314 211.837 125.783 212.176C125.257 212.514 124.635 212.683 123.916 212.683C123.463 212.683 123.064 212.623 122.721 212.504C122.377 212.384 122.083 212.222 121.838 212.019C121.593 211.816 121.39 211.595 121.229 211.355H121.135C121.15 211.558 121.169 211.803 121.189 212.09C121.215 212.376 121.229 212.626 121.229 212.84V216.355H119.924V203.965H120.994L121.166 205.23H121.229C121.395 204.97 121.598 204.733 121.838 204.519C122.077 204.301 122.369 204.129 122.713 204.004C123.062 203.873 123.473 203.808 123.947 203.808ZM123.721 204.902C123.127 204.902 122.648 205.017 122.283 205.246C121.924 205.475 121.661 205.819 121.494 206.277C121.327 206.73 121.239 207.301 121.229 207.988V208.238C121.229 208.962 121.307 209.574 121.463 210.074C121.624 210.574 121.887 210.954 122.252 211.215C122.622 211.475 123.117 211.605 123.736 211.605C124.268 211.605 124.71 211.462 125.064 211.176C125.419 210.889 125.682 210.491 125.854 209.98C126.031 209.465 126.119 208.873 126.119 208.207C126.119 207.196 125.921 206.394 125.525 205.801C125.135 205.202 124.533 204.902 123.721 204.902ZM133.018 203.808C133.747 203.808 134.372 203.97 134.893 204.293C135.413 204.616 135.812 205.069 136.088 205.652C136.364 206.23 136.502 206.907 136.502 207.683V208.488H130.588C130.604 209.493 130.854 210.259 131.338 210.785C131.822 211.311 132.505 211.574 133.385 211.574C133.926 211.574 134.406 211.524 134.822 211.426C135.239 211.327 135.671 211.181 136.119 210.988V212.129C135.687 212.321 135.257 212.462 134.83 212.551C134.408 212.639 133.908 212.683 133.33 212.683C132.507 212.683 131.788 212.517 131.174 212.183C130.564 211.845 130.09 211.35 129.752 210.699C129.413 210.048 129.244 209.251 129.244 208.308C129.244 207.386 129.398 206.59 129.705 205.918C130.018 205.241 130.455 204.72 131.018 204.355C131.585 203.991 132.252 203.808 133.018 203.808ZM133.002 204.871C132.309 204.871 131.757 205.097 131.346 205.551C130.934 206.004 130.689 206.636 130.611 207.449H135.143C135.137 206.939 135.057 206.491 134.9 206.105C134.749 205.715 134.518 205.413 134.205 205.199C133.893 204.98 133.492 204.871 133.002 204.871ZM142.596 203.808C142.768 203.808 142.947 203.819 143.135 203.84C143.322 203.855 143.489 203.879 143.635 203.91L143.471 205.113C143.33 205.077 143.174 205.048 143.002 205.027C142.83 205.006 142.669 204.996 142.518 204.996C142.174 204.996 141.848 205.066 141.541 205.207C141.239 205.342 140.973 205.54 140.744 205.801C140.515 206.056 140.335 206.366 140.205 206.73C140.075 207.09 140.01 207.491 140.01 207.933V212.527H138.705V203.965H139.783L139.924 205.543H139.979C140.156 205.225 140.369 204.936 140.619 204.676C140.869 204.41 141.158 204.199 141.486 204.043C141.82 203.886 142.189 203.808 142.596 203.808ZM148.455 203.824C149.476 203.824 150.234 204.053 150.729 204.511C151.223 204.97 151.471 205.702 151.471 206.707V212.527H150.525L150.275 211.261H150.213C149.973 211.574 149.723 211.837 149.463 212.051C149.202 212.259 148.9 212.418 148.557 212.527C148.218 212.631 147.801 212.683 147.307 212.683C146.786 212.683 146.322 212.592 145.916 212.41C145.515 212.228 145.197 211.952 144.963 211.582C144.734 211.212 144.619 210.743 144.619 210.176C144.619 209.321 144.958 208.665 145.635 208.207C146.312 207.748 147.343 207.498 148.729 207.457L150.205 207.394V206.871C150.205 206.131 150.046 205.613 149.729 205.316C149.411 205.019 148.963 204.871 148.385 204.871C147.937 204.871 147.51 204.936 147.104 205.066C146.697 205.196 146.312 205.35 145.947 205.527L145.549 204.543C145.934 204.345 146.377 204.176 146.877 204.035C147.377 203.894 147.903 203.824 148.455 203.824ZM150.189 208.308L148.885 208.363C147.817 208.405 147.064 208.579 146.627 208.886C146.189 209.194 145.971 209.629 145.971 210.191C145.971 210.681 146.119 211.043 146.416 211.277C146.713 211.511 147.106 211.629 147.596 211.629C148.356 211.629 148.979 211.418 149.463 210.996C149.947 210.574 150.189 209.941 150.189 209.097V208.308ZM156.908 211.621C157.122 211.621 157.34 211.603 157.564 211.566C157.788 211.53 157.971 211.485 158.111 211.433V212.441C157.96 212.509 157.749 212.566 157.479 212.613C157.213 212.66 156.952 212.683 156.697 212.683C156.244 212.683 155.833 212.605 155.463 212.449C155.093 212.288 154.796 212.017 154.572 211.636C154.354 211.256 154.244 210.73 154.244 210.058V204.98H153.025V204.347L154.252 203.84L154.768 201.98H155.549V203.965H158.057V204.98H155.549V210.019C155.549 210.556 155.671 210.957 155.916 211.222C156.166 211.488 156.497 211.621 156.908 211.621ZM161.143 203.965V212.527H159.846V203.965H161.143ZM160.51 200.761C160.723 200.761 160.906 200.832 161.057 200.972C161.213 201.108 161.291 201.321 161.291 201.613C161.291 201.899 161.213 202.113 161.057 202.254C160.906 202.394 160.723 202.465 160.51 202.465C160.286 202.465 160.098 202.394 159.947 202.254C159.801 202.113 159.729 201.899 159.729 201.613C159.729 201.321 159.801 201.108 159.947 200.972C160.098 200.832 160.286 200.761 160.51 200.761ZM171.275 208.23C171.275 208.933 171.184 209.561 171.002 210.113C170.82 210.665 170.557 211.131 170.213 211.511C169.869 211.892 169.452 212.183 168.963 212.386C168.479 212.584 167.929 212.683 167.314 212.683C166.742 212.683 166.215 212.584 165.736 212.386C165.262 212.183 164.851 211.892 164.502 211.511C164.158 211.131 163.89 210.665 163.697 210.113C163.51 209.561 163.416 208.933 163.416 208.23C163.416 207.293 163.575 206.496 163.893 205.84C164.21 205.178 164.663 204.676 165.252 204.332C165.846 203.983 166.551 203.808 167.369 203.808C168.15 203.808 168.833 203.983 169.416 204.332C170.005 204.681 170.46 205.186 170.783 205.847C171.111 206.504 171.275 207.298 171.275 208.23ZM164.76 208.23C164.76 208.918 164.851 209.514 165.033 210.019C165.215 210.524 165.497 210.915 165.877 211.191C166.257 211.467 166.747 211.605 167.346 211.605C167.939 211.605 168.426 211.467 168.807 211.191C169.192 210.915 169.476 210.524 169.658 210.019C169.84 209.514 169.932 208.918 169.932 208.23C169.932 207.548 169.84 206.959 169.658 206.465C169.476 205.965 169.195 205.579 168.814 205.308C168.434 205.038 167.942 204.902 167.338 204.902C166.447 204.902 165.794 205.196 165.377 205.785C164.965 206.373 164.76 207.189 164.76 208.23ZM177.572 203.808C178.588 203.808 179.356 204.058 179.877 204.558C180.398 205.053 180.658 205.85 180.658 206.949V212.527H179.377V207.035C179.377 206.321 179.213 205.788 178.885 205.433C178.562 205.079 178.064 204.902 177.393 204.902C176.445 204.902 175.778 205.17 175.393 205.707C175.007 206.243 174.814 207.022 174.814 208.043V212.527H173.518V203.965H174.564L174.76 205.199H174.83C175.012 204.897 175.244 204.644 175.525 204.441C175.807 204.233 176.122 204.077 176.471 203.972C176.82 203.863 177.187 203.808 177.572 203.808ZM188.869 210.183C188.869 210.73 188.731 211.191 188.455 211.566C188.184 211.936 187.794 212.215 187.283 212.402C186.778 212.59 186.174 212.683 185.471 212.683C184.872 212.683 184.354 212.636 183.916 212.543C183.479 212.449 183.096 212.316 182.768 212.144V210.949C183.117 211.121 183.533 211.277 184.018 211.418C184.502 211.558 184.997 211.629 185.502 211.629C186.242 211.629 186.778 211.509 187.111 211.269C187.445 211.03 187.611 210.704 187.611 210.293C187.611 210.058 187.544 209.853 187.408 209.676C187.278 209.493 187.057 209.319 186.744 209.152C186.432 208.98 185.999 208.793 185.447 208.59C184.9 208.381 184.426 208.176 184.025 207.972C183.63 207.764 183.322 207.511 183.104 207.215C182.89 206.918 182.783 206.532 182.783 206.058C182.783 205.334 183.075 204.78 183.658 204.394C184.247 204.004 185.018 203.808 185.971 203.808C186.486 203.808 186.968 203.86 187.416 203.965C187.869 204.064 188.291 204.199 188.682 204.371L188.244 205.41C187.89 205.259 187.512 205.131 187.111 205.027C186.71 204.923 186.301 204.871 185.885 204.871C185.286 204.871 184.825 204.97 184.502 205.168C184.184 205.366 184.025 205.636 184.025 205.98C184.025 206.246 184.098 206.465 184.244 206.636C184.395 206.808 184.635 206.97 184.963 207.121C185.291 207.272 185.723 207.449 186.26 207.652C186.796 207.85 187.26 208.056 187.65 208.269C188.041 208.478 188.34 208.733 188.549 209.035C188.762 209.332 188.869 209.715 188.869 210.183Z" fill="#242424"/>
<circle cx="12.6504" cy="258.027" r="12.5" fill="#A2D39D"/>
<path d="M43.3691 261.527H42.041V256.144H36.041V261.527H34.7129V250.105H36.041V254.972H42.041V250.105H43.3691V261.527ZM49.6113 252.808C50.3405 252.808 50.9655 252.97 51.4863 253.293C52.0072 253.616 52.4056 254.069 52.6816 254.652C52.9577 255.23 53.0957 255.907 53.0957 256.683V257.488H47.1816C47.1973 258.493 47.4473 259.259 47.9316 259.785C48.416 260.311 49.0983 260.574 49.9785 260.574C50.5202 260.574 50.9993 260.524 51.416 260.426C51.8327 260.327 52.265 260.181 52.7129 259.988V261.129C52.2806 261.321 51.8509 261.462 51.4238 261.551C51.002 261.639 50.502 261.683 49.9238 261.683C49.1009 261.683 48.3822 261.517 47.7676 261.183C47.1582 260.845 46.6842 260.35 46.3457 259.699C46.0072 259.048 45.8379 258.251 45.8379 257.308C45.8379 256.386 45.9915 255.59 46.2988 254.918C46.6113 254.241 47.0488 253.72 47.6113 253.355C48.179 252.991 48.8457 252.808 49.6113 252.808ZM49.5957 253.871C48.903 253.871 48.3509 254.097 47.9395 254.551C47.528 255.004 47.2832 255.636 47.2051 256.449H51.7363C51.7311 255.939 51.6504 255.491 51.4941 255.105C51.3431 254.715 51.1113 254.413 50.7988 254.199C50.4863 253.98 50.0853 253.871 49.5957 253.871ZM58.502 252.824C59.5228 252.824 60.2806 253.053 60.7754 253.511C61.2702 253.97 61.5176 254.702 61.5176 255.707V261.527H60.5723L60.3223 260.261H60.2598C60.0202 260.574 59.7702 260.837 59.5098 261.051C59.2493 261.259 58.9473 261.418 58.6035 261.527C58.265 261.631 57.8483 261.683 57.3535 261.683C56.8327 261.683 56.3691 261.592 55.9629 261.41C55.5618 261.228 55.2441 260.952 55.0098 260.582C54.7806 260.212 54.666 259.743 54.666 259.176C54.666 258.321 55.0046 257.665 55.6816 257.207C56.3587 256.748 57.39 256.498 58.7754 256.457L60.252 256.394V255.871C60.252 255.131 60.0931 254.613 59.7754 254.316C59.4577 254.019 59.0098 253.871 58.4316 253.871C57.9837 253.871 57.5566 253.936 57.1504 254.066C56.7441 254.196 56.3587 254.35 55.9941 254.527L55.5957 253.543C55.9811 253.345 56.4238 253.176 56.9238 253.035C57.4238 252.894 57.9499 252.824 58.502 252.824ZM60.2363 257.308L58.9316 257.363C57.8639 257.405 57.1113 257.579 56.6738 257.886C56.2363 258.194 56.0176 258.629 56.0176 259.191C56.0176 259.681 56.166 260.043 56.4629 260.277C56.7598 260.511 57.153 260.629 57.6426 260.629C58.403 260.629 59.0254 260.418 59.5098 259.996C59.9941 259.574 60.2363 258.941 60.2363 258.097V257.308ZM67.2363 261.683C66.153 261.683 65.2936 261.314 64.6582 260.574C64.028 259.834 63.7129 258.735 63.7129 257.277C63.7129 255.803 64.0358 254.691 64.6816 253.941C65.3275 253.186 66.1868 252.808 67.2598 252.808C67.7129 252.808 68.1087 252.868 68.4473 252.988C68.7858 253.108 69.0775 253.269 69.3223 253.472C69.5671 253.67 69.7728 253.897 69.9395 254.152H70.0332C70.0124 253.991 69.9915 253.769 69.9707 253.488C69.9499 253.207 69.9395 252.978 69.9395 252.801V249.371H71.2363V261.527H70.1895L69.9941 260.308H69.9395C69.778 260.564 69.5723 260.795 69.3223 261.004C69.0775 261.212 68.7832 261.379 68.4395 261.504C68.1009 261.623 67.6999 261.683 67.2363 261.683ZM67.4395 260.605C68.3561 260.605 69.0046 260.345 69.3848 259.824C69.765 259.303 69.9551 258.53 69.9551 257.504V257.269C69.9551 256.181 69.7728 255.345 69.4082 254.761C69.0488 254.178 68.3926 253.886 67.4395 253.886C66.6426 253.886 66.0462 254.194 65.6504 254.808C65.2546 255.418 65.0566 256.251 65.0566 257.308C65.0566 258.36 65.252 259.173 65.6426 259.746C66.0384 260.319 66.6374 260.605 67.4395 260.605ZM77.416 261.683C76.6452 261.683 75.9655 261.524 75.377 261.207C74.7884 260.889 74.3301 260.405 74.002 259.754C73.6738 259.103 73.5098 258.282 73.5098 257.293C73.5098 256.256 73.6816 255.41 74.0254 254.754C74.3743 254.092 74.8535 253.603 75.4629 253.285C76.0723 252.967 76.765 252.808 77.541 252.808C77.9681 252.808 78.3796 252.853 78.7754 252.941C79.1764 253.024 79.5046 253.131 79.7598 253.261L79.3691 254.347C79.1087 254.243 78.8066 254.149 78.4629 254.066C78.1243 253.983 77.8066 253.941 77.5098 253.941C76.916 253.941 76.4212 254.069 76.0254 254.324C75.6348 254.579 75.3405 254.954 75.1426 255.449C74.9499 255.944 74.8535 256.553 74.8535 257.277C74.8535 257.97 74.9473 258.561 75.1348 259.051C75.3275 259.54 75.6113 259.915 75.9863 260.176C76.3665 260.431 76.8405 260.558 77.4082 260.558C77.8613 260.558 78.2702 260.511 78.6348 260.418C78.9993 260.319 79.3301 260.204 79.627 260.074V261.23C79.3405 261.376 79.0202 261.488 78.666 261.566C78.3171 261.644 77.9004 261.683 77.416 261.683ZM89.041 257.23C89.041 257.933 88.9499 258.561 88.7676 259.113C88.5853 259.665 88.3223 260.131 87.9785 260.511C87.6348 260.892 87.2181 261.183 86.7285 261.386C86.2441 261.584 85.6947 261.683 85.0801 261.683C84.5072 261.683 83.9811 261.584 83.502 261.386C83.028 261.183 82.6165 260.892 82.2676 260.511C81.9238 260.131 81.6556 259.665 81.4629 259.113C81.2754 258.561 81.1816 257.933 81.1816 257.23C81.1816 256.293 81.3405 255.496 81.6582 254.84C81.9759 254.178 82.429 253.676 83.0176 253.332C83.6113 252.983 84.3171 252.808 85.1348 252.808C85.916 252.808 86.5983 252.983 87.1816 253.332C87.7702 253.681 88.2259 254.186 88.5488 254.847C88.877 255.504 89.041 256.298 89.041 257.23ZM82.5254 257.23C82.5254 257.918 82.6165 258.514 82.7988 259.019C82.9811 259.524 83.2624 259.915 83.6426 260.191C84.0228 260.467 84.5124 260.605 85.1113 260.605C85.7051 260.605 86.1921 260.467 86.5723 260.191C86.9577 259.915 87.2415 259.524 87.4238 259.019C87.6061 258.514 87.6973 257.918 87.6973 257.23C87.6973 256.548 87.6061 255.959 87.4238 255.465C87.2415 254.965 86.9603 254.579 86.5801 254.308C86.1999 254.038 85.7077 253.902 85.1035 253.902C84.2129 253.902 83.5592 254.196 83.1426 254.785C82.7311 255.373 82.5254 256.189 82.5254 257.23ZM98.3535 252.965V261.527H97.291L97.1035 260.324H97.0332C96.8561 260.621 96.627 260.871 96.3457 261.074C96.0645 261.277 95.7467 261.428 95.3926 261.527C95.0436 261.631 94.6712 261.683 94.2754 261.683C93.5983 261.683 93.0306 261.574 92.5723 261.355C92.1139 261.136 91.7676 260.798 91.5332 260.34C91.304 259.881 91.1895 259.293 91.1895 258.574V252.965H92.502V258.48C92.502 259.194 92.6634 259.728 92.9863 260.082C93.3092 260.431 93.8014 260.605 94.4629 260.605C95.0983 260.605 95.6035 260.485 95.9785 260.246C96.3587 260.006 96.6322 259.655 96.7988 259.191C96.9655 258.722 97.0488 258.149 97.0488 257.472V252.965H98.3535ZM105.15 252.808C106.166 252.808 106.934 253.058 107.455 253.558C107.976 254.053 108.236 254.85 108.236 255.949V261.527H106.955V256.035C106.955 255.321 106.791 254.788 106.463 254.433C106.14 254.079 105.643 253.902 104.971 253.902C104.023 253.902 103.356 254.17 102.971 254.707C102.585 255.243 102.393 256.022 102.393 257.043V261.527H101.096V252.965H102.143L102.338 254.199H102.408C102.59 253.897 102.822 253.644 103.104 253.441C103.385 253.233 103.7 253.077 104.049 252.972C104.398 252.863 104.765 252.808 105.15 252.808ZM113.674 260.621C113.887 260.621 114.106 260.603 114.33 260.566C114.554 260.53 114.736 260.485 114.877 260.433V261.441C114.726 261.509 114.515 261.566 114.244 261.613C113.979 261.66 113.718 261.683 113.463 261.683C113.01 261.683 112.598 261.605 112.229 261.449C111.859 261.288 111.562 261.017 111.338 260.636C111.119 260.256 111.01 259.73 111.01 259.058V253.98H109.791V253.347L111.018 252.84L111.533 250.98H112.314V252.965H114.822V253.98H112.314V259.019C112.314 259.556 112.437 259.957 112.682 260.222C112.932 260.488 113.262 260.621 113.674 260.621ZM118.096 259.668L118.197 259.847C118.104 260.228 117.984 260.634 117.838 261.066C117.697 261.498 117.541 261.931 117.369 262.363C117.202 262.801 117.033 263.209 116.861 263.59H115.893C116.002 263.173 116.109 262.733 116.213 262.269C116.317 261.811 116.411 261.358 116.494 260.91C116.583 260.457 116.653 260.043 116.705 259.668H118.096ZM138.361 252.808C139.304 252.808 140.015 253.056 140.494 253.551C140.973 254.04 141.213 254.829 141.213 255.918V261.527H139.932V255.98C139.932 255.288 139.781 254.769 139.479 254.426C139.182 254.077 138.739 253.902 138.15 253.902C137.322 253.902 136.721 254.142 136.346 254.621C135.971 255.1 135.783 255.806 135.783 256.738V261.527H134.494V255.98C134.494 255.517 134.426 255.131 134.291 254.824C134.161 254.517 133.963 254.288 133.697 254.136C133.437 253.98 133.106 253.902 132.705 253.902C132.137 253.902 131.682 254.019 131.338 254.254C130.994 254.488 130.744 254.837 130.588 255.301C130.437 255.759 130.361 256.324 130.361 256.996V261.527H129.064V252.965H130.111L130.307 254.176H130.377C130.549 253.879 130.765 253.629 131.025 253.426C131.286 253.222 131.577 253.069 131.9 252.965C132.223 252.86 132.567 252.808 132.932 252.808C133.583 252.808 134.127 252.931 134.564 253.176C135.007 253.415 135.327 253.782 135.525 254.277H135.596C135.877 253.782 136.262 253.415 136.752 253.176C137.242 252.931 137.778 252.808 138.361 252.808ZM147.08 252.824C148.101 252.824 148.859 253.053 149.354 253.511C149.848 253.97 150.096 254.702 150.096 255.707V261.527H149.15L148.9 260.261H148.838C148.598 260.574 148.348 260.837 148.088 261.051C147.827 261.259 147.525 261.418 147.182 261.527C146.843 261.631 146.426 261.683 145.932 261.683C145.411 261.683 144.947 261.592 144.541 261.41C144.14 261.228 143.822 260.952 143.588 260.582C143.359 260.212 143.244 259.743 143.244 259.176C143.244 258.321 143.583 257.665 144.26 257.207C144.937 256.748 145.968 256.498 147.354 256.457L148.83 256.394V255.871C148.83 255.131 148.671 254.613 148.354 254.316C148.036 254.019 147.588 253.871 147.01 253.871C146.562 253.871 146.135 253.936 145.729 254.066C145.322 254.196 144.937 254.35 144.572 254.527L144.174 253.543C144.559 253.345 145.002 253.176 145.502 253.035C146.002 252.894 146.528 252.824 147.08 252.824ZM148.814 257.308L147.51 257.363C146.442 257.405 145.689 257.579 145.252 257.886C144.814 258.194 144.596 258.629 144.596 259.191C144.596 259.681 144.744 260.043 145.041 260.277C145.338 260.511 145.731 260.629 146.221 260.629C146.981 260.629 147.604 260.418 148.088 259.996C148.572 259.574 148.814 258.941 148.814 258.097V257.308ZM156.658 252.808C156.83 252.808 157.01 252.819 157.197 252.84C157.385 252.855 157.551 252.879 157.697 252.91L157.533 254.113C157.393 254.077 157.236 254.048 157.064 254.027C156.893 254.006 156.731 253.996 156.58 253.996C156.236 253.996 155.911 254.066 155.604 254.207C155.301 254.342 155.036 254.54 154.807 254.801C154.577 255.056 154.398 255.366 154.268 255.73C154.137 256.09 154.072 256.491 154.072 256.933V261.527H152.768V252.965H153.846L153.986 254.543H154.041C154.218 254.225 154.432 253.936 154.682 253.676C154.932 253.41 155.221 253.199 155.549 253.043C155.882 252.886 156.252 252.808 156.658 252.808ZM160.604 249.371V255.683C160.604 255.892 160.596 256.147 160.58 256.449C160.564 256.746 160.551 257.009 160.541 257.238H160.596C160.705 257.103 160.864 256.902 161.072 256.636C161.286 256.371 161.465 256.157 161.611 255.996L164.455 252.965H165.979L162.533 256.621L166.229 261.527H164.666L161.643 257.472L160.604 258.426V261.527H159.314V249.371H160.604ZM171.018 252.808C171.747 252.808 172.372 252.97 172.893 253.293C173.413 253.616 173.812 254.069 174.088 254.652C174.364 255.23 174.502 255.907 174.502 256.683V257.488H168.588C168.604 258.493 168.854 259.259 169.338 259.785C169.822 260.311 170.505 260.574 171.385 260.574C171.926 260.574 172.406 260.524 172.822 260.426C173.239 260.327 173.671 260.181 174.119 259.988V261.129C173.687 261.321 173.257 261.462 172.83 261.551C172.408 261.639 171.908 261.683 171.33 261.683C170.507 261.683 169.788 261.517 169.174 261.183C168.564 260.845 168.09 260.35 167.752 259.699C167.413 259.048 167.244 258.251 167.244 257.308C167.244 256.386 167.398 255.59 167.705 254.918C168.018 254.241 168.455 253.72 169.018 253.355C169.585 252.991 170.252 252.808 171.018 252.808ZM171.002 253.871C170.309 253.871 169.757 254.097 169.346 254.551C168.934 255.004 168.689 255.636 168.611 256.449H173.143C173.137 255.939 173.057 255.491 172.9 255.105C172.749 254.715 172.518 254.413 172.205 254.199C171.893 253.98 171.492 253.871 171.002 253.871ZM179.471 260.621C179.684 260.621 179.903 260.603 180.127 260.566C180.351 260.53 180.533 260.485 180.674 260.433V261.441C180.523 261.509 180.312 261.566 180.041 261.613C179.775 261.66 179.515 261.683 179.26 261.683C178.807 261.683 178.395 261.605 178.025 261.449C177.656 261.288 177.359 261.017 177.135 260.636C176.916 260.256 176.807 259.73 176.807 259.058V253.98H175.588V253.347L176.814 252.84L177.33 250.98H178.111V252.965H180.619V253.98H178.111V259.019C178.111 259.556 178.234 259.957 178.479 260.222C178.729 260.488 179.059 260.621 179.471 260.621ZM183.705 252.965V261.527H182.408V252.965H183.705ZM183.072 249.761C183.286 249.761 183.468 249.832 183.619 249.972C183.775 250.108 183.854 250.321 183.854 250.613C183.854 250.899 183.775 251.113 183.619 251.254C183.468 251.394 183.286 251.465 183.072 251.465C182.848 251.465 182.661 251.394 182.51 251.254C182.364 251.113 182.291 250.899 182.291 250.613C182.291 250.321 182.364 250.108 182.51 249.972C182.661 249.832 182.848 249.761 183.072 249.761ZM190.51 252.808C191.525 252.808 192.294 253.058 192.814 253.558C193.335 254.053 193.596 254.85 193.596 255.949V261.527H192.314V256.035C192.314 255.321 192.15 254.788 191.822 254.433C191.499 254.079 191.002 253.902 190.33 253.902C189.382 253.902 188.715 254.17 188.33 254.707C187.945 255.243 187.752 256.022 187.752 257.043V261.527H186.455V252.965H187.502L187.697 254.199H187.768C187.95 253.897 188.182 253.644 188.463 253.441C188.744 253.233 189.059 253.077 189.408 252.972C189.757 252.863 190.124 252.808 190.51 252.808ZM198.658 265.371C197.533 265.371 196.666 265.16 196.057 264.738C195.447 264.321 195.143 263.735 195.143 262.98C195.143 262.444 195.312 261.985 195.65 261.605C195.994 261.225 196.468 260.972 197.072 260.847C196.848 260.743 196.656 260.587 196.494 260.379C196.338 260.17 196.26 259.931 196.26 259.66C196.26 259.347 196.346 259.074 196.518 258.84C196.695 258.6 196.963 258.371 197.322 258.152C196.874 257.97 196.51 257.663 196.229 257.23C195.952 256.793 195.814 256.285 195.814 255.707C195.814 255.092 195.942 254.569 196.197 254.136C196.452 253.699 196.822 253.366 197.307 253.136C197.791 252.907 198.377 252.793 199.064 252.793C199.215 252.793 199.367 252.801 199.518 252.816C199.674 252.827 199.822 252.845 199.963 252.871C200.104 252.892 200.226 252.918 200.33 252.949H203.268V253.785L201.689 253.98C201.846 254.183 201.976 254.428 202.08 254.715C202.184 255.001 202.236 255.319 202.236 255.668C202.236 256.522 201.947 257.202 201.369 257.707C200.791 258.207 199.997 258.457 198.986 258.457C198.747 258.457 198.502 258.436 198.252 258.394C197.997 258.535 197.801 258.691 197.666 258.863C197.536 259.035 197.471 259.233 197.471 259.457C197.471 259.623 197.52 259.756 197.619 259.855C197.723 259.954 197.872 260.027 198.064 260.074C198.257 260.116 198.489 260.136 198.76 260.136H200.268C201.2 260.136 201.913 260.332 202.408 260.722C202.908 261.113 203.158 261.683 203.158 262.433C203.158 263.381 202.773 264.108 202.002 264.613C201.231 265.118 200.117 265.371 198.658 265.371ZM198.697 264.355C199.406 264.355 199.992 264.282 200.455 264.136C200.924 263.996 201.273 263.79 201.502 263.519C201.736 263.254 201.854 262.936 201.854 262.566C201.854 262.222 201.775 261.962 201.619 261.785C201.463 261.613 201.234 261.498 200.932 261.441C200.63 261.379 200.26 261.347 199.822 261.347H198.338C197.952 261.347 197.617 261.407 197.33 261.527C197.044 261.647 196.822 261.824 196.666 262.058C196.515 262.293 196.439 262.584 196.439 262.933C196.439 263.397 196.635 263.748 197.025 263.988C197.416 264.233 197.973 264.355 198.697 264.355ZM199.033 257.511C199.653 257.511 200.119 257.355 200.432 257.043C200.744 256.73 200.9 256.274 200.9 255.676C200.9 255.035 200.742 254.556 200.424 254.238C200.106 253.915 199.637 253.754 199.018 253.754C198.424 253.754 197.965 253.92 197.643 254.254C197.325 254.582 197.166 255.064 197.166 255.699C197.166 256.282 197.327 256.73 197.65 257.043C197.973 257.355 198.434 257.511 199.033 257.511ZM214.65 259.183C214.65 259.73 214.512 260.191 214.236 260.566C213.965 260.936 213.575 261.215 213.064 261.402C212.559 261.59 211.955 261.683 211.252 261.683C210.653 261.683 210.135 261.636 209.697 261.543C209.26 261.449 208.877 261.316 208.549 261.144V259.949C208.898 260.121 209.314 260.277 209.799 260.418C210.283 260.558 210.778 260.629 211.283 260.629C212.023 260.629 212.559 260.509 212.893 260.269C213.226 260.03 213.393 259.704 213.393 259.293C213.393 259.058 213.325 258.853 213.189 258.676C213.059 258.493 212.838 258.319 212.525 258.152C212.213 257.98 211.781 257.793 211.229 257.59C210.682 257.381 210.208 257.176 209.807 256.972C209.411 256.764 209.104 256.511 208.885 256.215C208.671 255.918 208.564 255.532 208.564 255.058C208.564 254.334 208.856 253.78 209.439 253.394C210.028 253.004 210.799 252.808 211.752 252.808C212.268 252.808 212.749 252.86 213.197 252.965C213.65 253.064 214.072 253.199 214.463 253.371L214.025 254.41C213.671 254.259 213.294 254.131 212.893 254.027C212.492 253.923 212.083 253.871 211.666 253.871C211.067 253.871 210.606 253.97 210.283 254.168C209.965 254.366 209.807 254.636 209.807 254.98C209.807 255.246 209.88 255.465 210.025 255.636C210.176 255.808 210.416 255.97 210.744 256.121C211.072 256.272 211.505 256.449 212.041 256.652C212.577 256.85 213.041 257.056 213.432 257.269C213.822 257.478 214.122 257.733 214.33 258.035C214.544 258.332 214.65 258.715 214.65 259.183ZM219.939 252.824C220.96 252.824 221.718 253.053 222.213 253.511C222.708 253.97 222.955 254.702 222.955 255.707V261.527H222.01L221.76 260.261H221.697C221.458 260.574 221.208 260.837 220.947 261.051C220.687 261.259 220.385 261.418 220.041 261.527C219.702 261.631 219.286 261.683 218.791 261.683C218.27 261.683 217.807 261.592 217.4 261.41C216.999 261.228 216.682 260.952 216.447 260.582C216.218 260.212 216.104 259.743 216.104 259.176C216.104 258.321 216.442 257.665 217.119 257.207C217.796 256.748 218.827 256.498 220.213 256.457L221.689 256.394V255.871C221.689 255.131 221.531 254.613 221.213 254.316C220.895 254.019 220.447 253.871 219.869 253.871C219.421 253.871 218.994 253.936 218.588 254.066C218.182 254.196 217.796 254.35 217.432 254.527L217.033 253.543C217.419 253.345 217.861 253.176 218.361 253.035C218.861 252.894 219.387 252.824 219.939 252.824ZM221.674 257.308L220.369 257.363C219.301 257.405 218.549 257.579 218.111 257.886C217.674 258.194 217.455 258.629 217.455 259.191C217.455 259.681 217.604 260.043 217.9 260.277C218.197 260.511 218.59 260.629 219.08 260.629C219.84 260.629 220.463 260.418 220.947 259.996C221.432 259.574 221.674 258.941 221.674 258.097V257.308ZM226.932 261.527H225.627V249.371H226.932V261.527ZM232.971 252.808C233.7 252.808 234.325 252.97 234.846 253.293C235.367 253.616 235.765 254.069 236.041 254.652C236.317 255.23 236.455 255.907 236.455 256.683V257.488H230.541C230.557 258.493 230.807 259.259 231.291 259.785C231.775 260.311 232.458 260.574 233.338 260.574C233.88 260.574 234.359 260.524 234.775 260.426C235.192 260.327 235.624 260.181 236.072 259.988V261.129C235.64 261.321 235.21 261.462 234.783 261.551C234.361 261.639 233.861 261.683 233.283 261.683C232.46 261.683 231.742 261.517 231.127 261.183C230.518 260.845 230.044 260.35 229.705 259.699C229.367 259.048 229.197 258.251 229.197 257.308C229.197 256.386 229.351 255.59 229.658 254.918C229.971 254.241 230.408 253.72 230.971 253.355C231.538 252.991 232.205 252.808 232.971 252.808ZM232.955 253.871C232.262 253.871 231.71 254.097 231.299 254.551C230.887 255.004 230.643 255.636 230.564 256.449H235.096C235.09 255.939 235.01 255.491 234.854 255.105C234.702 254.715 234.471 254.413 234.158 254.199C233.846 253.98 233.445 253.871 232.955 253.871ZM244.197 259.183C244.197 259.73 244.059 260.191 243.783 260.566C243.512 260.936 243.122 261.215 242.611 261.402C242.106 261.59 241.502 261.683 240.799 261.683C240.2 261.683 239.682 261.636 239.244 261.543C238.807 261.449 238.424 261.316 238.096 261.144V259.949C238.445 260.121 238.861 260.277 239.346 260.418C239.83 260.558 240.325 260.629 240.83 260.629C241.57 260.629 242.106 260.509 242.439 260.269C242.773 260.03 242.939 259.704 242.939 259.293C242.939 259.058 242.872 258.853 242.736 258.676C242.606 258.493 242.385 258.319 242.072 258.152C241.76 257.98 241.327 257.793 240.775 257.59C240.229 257.381 239.755 257.176 239.354 256.972C238.958 256.764 238.65 256.511 238.432 256.215C238.218 255.918 238.111 255.532 238.111 255.058C238.111 254.334 238.403 253.78 238.986 253.394C239.575 253.004 240.346 252.808 241.299 252.808C241.814 252.808 242.296 252.86 242.744 252.965C243.197 253.064 243.619 253.199 244.01 253.371L243.572 254.41C243.218 254.259 242.84 254.131 242.439 254.027C242.038 253.923 241.63 253.871 241.213 253.871C240.614 253.871 240.153 253.97 239.83 254.168C239.512 254.366 239.354 254.636 239.354 254.98C239.354 255.246 239.426 255.465 239.572 255.636C239.723 255.808 239.963 255.97 240.291 256.121C240.619 256.272 241.051 256.449 241.588 256.652C242.124 256.85 242.588 257.056 242.979 257.269C243.369 257.478 243.669 257.733 243.877 258.035C244.09 258.332 244.197 258.715 244.197 259.183Z" fill="#242424"/>
</svg>
