<svg width="25" height="25" viewBox="0 0 25 25" fill="none" xmlns="http://www.w3.org/2000/svg">
<g clip-path="url(#clip0_1_4376)">
<path d="M4.5 8.35254C4.5 7.29167 4.92143 6.27426 5.67157 5.52411C6.42172 4.77397 7.43913 4.35254 8.5 4.35254H16.5C17.5609 4.35254 18.5783 4.77397 19.3284 5.52411C20.0786 6.27426 20.5 7.29167 20.5 8.35254V16.3525C20.5 17.4134 20.0786 18.4308 19.3284 19.181C18.5783 19.9311 17.5609 20.3525 16.5 20.3525H8.5C7.43913 20.3525 6.42172 19.9311 5.67157 19.181C4.92143 18.4308 4.5 17.4134 4.5 16.3525V8.35254Z" stroke="#242424" stroke-width="2" stroke-linecap="round" stroke-linejoin="round"/>
<path d="M9.5 12.3525C9.5 13.1482 9.81607 13.9113 10.3787 14.4739C10.9413 15.0365 11.7044 15.3525 12.5 15.3525C13.2956 15.3525 14.0587 15.0365 14.6213 14.4739C15.1839 13.9113 15.5 13.1482 15.5 12.3525C15.5 11.5569 15.1839 10.7938 14.6213 10.2312C14.0587 9.66861 13.2956 9.35254 12.5 9.35254C11.7044 9.35254 10.9413 9.66861 10.3787 10.2312C9.81607 10.7938 9.5 11.5569 9.5 12.3525Z" stroke="#242424" stroke-width="2" stroke-linecap="round" stroke-linejoin="round"/>
<path d="M17 7.85254V7.86254" stroke="#242424" stroke-width="2" stroke-linecap="round" stroke-linejoin="round"/>
</g>
<defs>
<clipPath id="clip0_1_4376">
<rect width="24" height="24" fill="white" transform="translate(0.5 0.352539)"/>
</clipPath>
</defs>
</svg>
