<svg width="38" height="43" viewBox="0 0 38 43" fill="none" xmlns="http://www.w3.org/2000/svg">
<path d="M7.57642 4.33781C9.9837 2.40777 13.7841 0.812975 16.7861 0.473133C21.7003 -0.0831992 26.5523 1.29568 30.5884 4.39576C32.4758 5.8454 34.5045 8.47215 35.7535 11.084C38.2277 16.2572 38.069 21.9783 35.3031 27.3398C32.695 32.395 28.4873 35.5519 22.6413 36.839C21.2238 37.1513 20.4139 37.2065 18.2232 37.1407C15.8461 37.0694 15.3334 36.9912 13.7205 36.454C12.7194 36.1204 11.4692 35.6112 10.9423 35.3222L9.98428 34.797L9.93428 26.4849C9.90439 21.5135 9.96168 17.7477 10.0768 17.1147C10.5217 14.6685 12.387 12.0511 14.5766 10.8007C16.524 9.68847 19.0572 9.3643 21.2821 9.94282C24.8033 10.8583 27.7825 14.1544 28.0456 17.4259L28.1432 18.6382H26.0229H23.9026L23.6066 17.6219C22.9921 15.5119 21.4821 14.2627 19.3302 14.0846C17.4935 13.9326 15.5597 15.05 14.6168 16.8083C14.2099 17.567 14.1995 17.7607 14.1999 24.6083C14.2005 30.7635 14.238 31.6675 14.5043 31.9333C15.3681 32.7956 19.7993 33.0626 22.3974 32.4091C31.9821 29.9985 36.2105 18.695 30.509 10.725C28.1441 7.41934 24.8068 5.46252 20.5044 4.85934C18.0363 4.51338 15.0292 5.06148 12.5824 6.30324C9.89021 7.6693 7.74925 9.90132 6.34577 12.8052C4.91623 15.7632 4.90684 15.8622 4.90684 27.9751C4.90684 39.7853 4.91336 39.7153 3.7011 40.9886C2.99447 41.731 1.79236 42.3422 1.02691 42.3483L0.5 42.3525V30.4426C0.5 18.5404 0.585259 16.5561 1.2049 14.0534C2.11328 10.3842 4.41787 6.87028 7.57642 4.33781Z" fill="#ED2E92"/>
<path d="M17.5368 20.5954C16.5995 19.5485 16.8363 17.9862 18.0316 17.3302C19.3036 16.632 21.0014 17.6949 21.0014 19.1897C21.0014 19.7826 20.8667 20.1215 20.4423 20.5954C19.9623 21.1316 19.7567 21.22 18.9896 21.22C18.2224 21.22 18.0168 21.1316 17.5368 20.5954Z" fill="#ED2E92"/>
</svg>
