<svg width="358" height="357" viewBox="0 0 358 357" fill="none" xmlns="http://www.w3.org/2000/svg">
<path d="M48.851 285.909C44.6067 289.443 44.0105 295.77 47.7772 299.809C63.4576 316.623 82.2729 330.261 103.199 339.935C127.154 351.011 153.275 356.616 179.666 356.343C206.057 356.07 232.056 349.925 255.777 338.356C279.498 326.787 300.347 310.082 316.81 289.455C333.274 268.827 344.939 244.793 350.961 219.097C356.982 193.401 357.208 166.687 351.622 140.892C346.037 115.098 334.779 90.8703 318.667 69.967C304.593 51.7076 287.123 36.3848 267.25 24.8231C262.477 22.0458 256.44 24.0301 253.935 28.9524L231.549 72.9471C229.044 77.8693 231.034 83.8517 235.705 86.7989C246.45 93.5787 255.942 102.208 263.73 112.312C273.558 125.062 280.424 139.839 283.831 155.572C287.238 171.305 287.1 187.599 283.427 203.272C279.755 218.945 272.639 233.604 262.598 246.186C252.556 258.768 239.84 268.956 225.371 276.013C210.902 283.07 195.045 286.817 178.948 286.984C162.851 287.15 146.919 283.732 132.308 276.976C120.728 271.623 110.209 264.28 101.215 255.306C97.3055 251.405 91.0308 250.791 86.7864 254.325L48.851 285.909Z" fill="#FF5EAB"/>
<path d="M248.854 26.4736C251.191 21.4698 249.039 15.4905 243.911 13.438C231.562 8.49455 218.697 4.95228 205.558 2.87778C200.103 2.01646 195.193 6.05132 194.64 11.5464L189.694 60.6607C189.141 66.1558 193.161 71.0123 198.582 72.0692C203.987 73.1231 209.304 74.5872 214.487 76.4487C219.685 78.3155 225.624 76.2012 227.962 71.1974L248.854 26.4736Z" fill="#FFC7AF"/>
<path d="M205.993 43.1621H204.446V45.8252H201.792V43.1621H196.308V41.2725L201.941 32.9756H204.446V41.0527H205.993V43.1621ZM201.792 41.0527V38.873C201.792 38.668 201.795 38.4248 201.801 38.1436C201.812 37.8623 201.824 37.5811 201.836 37.2998C201.848 37.0186 201.859 36.7695 201.871 36.5527C201.889 36.3301 201.9 36.1748 201.906 36.0869H201.836C201.725 36.3271 201.607 36.5615 201.484 36.79C201.361 37.0127 201.218 37.2471 201.054 37.4932L198.698 41.0527H201.792ZM207.329 44.5684C207.329 44.0176 207.479 43.6309 207.777 43.4082C208.082 43.1855 208.448 43.0742 208.876 43.0742C209.292 43.0742 209.649 43.1855 209.948 43.4082C210.253 43.6309 210.405 44.0176 210.405 44.5684C210.405 45.0957 210.253 45.4766 209.948 45.7109C209.649 45.9453 209.292 46.0625 208.876 46.0625C208.448 46.0625 208.082 45.9453 207.777 45.7109C207.479 45.4766 207.329 45.0957 207.329 44.5684ZM220.636 35.8496C220.636 36.4414 220.513 36.9541 220.267 37.3877C220.021 37.8213 219.687 38.1758 219.265 38.4512C218.849 38.7266 218.38 38.9287 217.858 39.0576V39.1104C218.89 39.2393 219.672 39.5557 220.205 40.0596C220.744 40.5635 221.014 41.2373 221.014 42.0811C221.014 42.8311 220.829 43.502 220.46 44.0938C220.097 44.6855 219.534 45.1514 218.772 45.4912C218.011 45.8311 217.029 46.001 215.828 46.001C215.119 46.001 214.457 45.9424 213.842 45.8252C213.232 45.7139 212.658 45.541 212.119 45.3066V42.9951C212.67 43.2764 213.247 43.4902 213.851 43.6367C214.454 43.7773 215.017 43.8477 215.538 43.8477C216.511 43.8477 217.19 43.6807 217.577 43.3467C217.97 43.0068 218.166 42.5322 218.166 41.9229C218.166 41.5654 218.075 41.2637 217.894 41.0176C217.712 40.7715 217.396 40.584 216.944 40.4551C216.499 40.3262 215.875 40.2617 215.072 40.2617H214.097V38.1787H215.09C215.881 38.1787 216.481 38.1055 216.892 37.959C217.308 37.8066 217.589 37.6016 217.735 37.3438C217.888 37.0801 217.964 36.7812 217.964 36.4473C217.964 35.9902 217.823 35.6328 217.542 35.375C217.261 35.1172 216.792 34.9883 216.136 34.9883C215.726 34.9883 215.351 35.041 215.011 35.1465C214.677 35.2461 214.375 35.3691 214.105 35.5156C213.836 35.6562 213.599 35.7939 213.394 35.9287L212.137 34.0566C212.641 33.6934 213.229 33.3916 213.903 33.1514C214.583 32.9111 215.392 32.791 216.329 32.791C217.653 32.791 218.702 33.0576 219.476 33.5908C220.249 34.124 220.636 34.877 220.636 35.8496ZM225.32 32.791C226.328 32.791 227.093 33.1426 227.614 33.8457C228.136 34.5488 228.396 35.5361 228.396 36.8076C228.396 38.0791 228.15 39.0723 227.658 39.7871C227.166 40.502 226.387 40.8594 225.32 40.8594C224.33 40.8594 223.577 40.502 223.062 39.7871C222.546 39.0723 222.288 38.0791 222.288 36.8076C222.288 35.5361 222.528 34.5488 223.009 33.8457C223.495 33.1426 224.266 32.791 225.32 32.791ZM225.338 34.6279C225.051 34.6279 224.84 34.8096 224.705 35.1729C224.57 35.5361 224.503 36.0869 224.503 36.8252C224.503 37.5635 224.57 38.1172 224.705 38.4863C224.84 38.8555 225.051 39.04 225.338 39.04C225.625 39.04 225.836 38.8584 225.971 38.4951C226.111 38.126 226.182 37.5693 226.182 36.8252C226.182 36.0869 226.111 35.5361 225.971 35.1729C225.836 34.8096 225.625 34.6279 225.338 34.6279ZM234.443 32.9756L227.315 45.8252H225.206L232.334 32.9756H234.443ZM234.32 37.9238C235.328 37.9238 236.093 38.2754 236.614 38.9785C237.136 39.6816 237.396 40.6689 237.396 41.9404C237.396 43.2061 237.15 44.1963 236.658 44.9111C236.166 45.626 235.387 45.9834 234.32 45.9834C233.33 45.9834 232.577 45.626 232.062 44.9111C231.546 44.1963 231.288 43.2061 231.288 41.9404C231.288 40.6689 231.528 39.6816 232.009 38.9785C232.495 38.2754 233.266 37.9238 234.32 37.9238ZM234.338 39.7607C234.051 39.7607 233.84 39.9424 233.705 40.3057C233.57 40.6689 233.503 41.2197 233.503 41.958C233.503 42.6963 233.57 43.25 233.705 43.6191C233.84 43.9883 234.051 44.1729 234.338 44.1729C234.625 44.1729 234.836 43.9912 234.971 43.6279C235.111 43.2588 235.182 42.7021 235.182 41.958C235.182 41.2197 235.111 40.6689 234.971 40.3057C234.836 39.9424 234.625 39.7607 234.338 39.7607Z" fill="#242424"/>
<path d="M289.633 237.542C289.633 236.804 289.686 236.074 289.791 235.354C289.902 234.627 290.093 233.944 290.362 233.306C290.632 232.661 291.01 232.093 291.496 231.601C291.982 231.103 292.601 230.713 293.351 230.432C294.101 230.145 295.009 230.001 296.075 230.001C296.327 230.001 296.62 230.013 296.954 230.036C297.294 230.054 297.575 230.086 297.798 230.133V232.304C297.563 232.251 297.312 232.21 297.042 232.181C296.778 232.146 296.515 232.128 296.251 232.128C295.185 232.128 294.358 232.298 293.772 232.638C293.192 232.978 292.782 233.449 292.542 234.053C292.308 234.65 292.17 235.348 292.129 236.145H292.243C292.407 235.857 292.612 235.603 292.858 235.38C293.11 235.157 293.415 234.981 293.772 234.853C294.13 234.718 294.549 234.65 295.029 234.65C295.779 234.65 296.43 234.812 296.98 235.134C297.531 235.45 297.956 235.91 298.255 236.514C298.554 237.117 298.703 237.853 298.703 238.72C298.703 239.646 298.524 240.442 298.167 241.11C297.81 241.778 297.303 242.291 296.646 242.648C295.996 243 295.223 243.176 294.326 243.176C293.67 243.176 293.058 243.064 292.489 242.842C291.921 242.613 291.423 242.268 290.995 241.805C290.567 241.342 290.233 240.759 289.993 240.056C289.753 239.347 289.633 238.509 289.633 237.542ZM294.273 241.005C294.807 241.005 295.24 240.823 295.574 240.46C295.908 240.097 296.075 239.528 296.075 238.755C296.075 238.128 295.929 237.636 295.636 237.278C295.349 236.915 294.912 236.733 294.326 236.733C293.928 236.733 293.576 236.824 293.271 237.006C292.973 237.182 292.741 237.407 292.577 237.683C292.413 237.952 292.331 238.23 292.331 238.518C292.331 238.816 292.372 239.112 292.454 239.405C292.536 239.698 292.659 239.965 292.823 240.205C292.987 240.445 293.189 240.639 293.43 240.785C293.676 240.932 293.957 241.005 294.273 241.005ZM304.451 229.983C305.189 229.983 305.869 230.098 306.49 230.326C307.117 230.555 307.618 230.9 307.993 231.363C308.368 231.82 308.556 232.395 308.556 233.086C308.556 233.602 308.453 234.053 308.248 234.439C308.049 234.826 307.776 235.166 307.431 235.459C307.085 235.746 306.692 235.998 306.253 236.215C306.71 236.455 307.144 236.736 307.554 237.059C307.964 237.375 308.298 237.747 308.556 238.175C308.819 238.603 308.951 239.101 308.951 239.669C308.951 240.384 308.761 241.005 308.38 241.532C307.999 242.054 307.472 242.458 306.798 242.745C306.124 243.032 305.342 243.176 304.451 243.176C303.49 243.176 302.673 243.038 301.999 242.763C301.325 242.487 300.812 242.095 300.461 241.585C300.109 241.069 299.934 240.454 299.934 239.739C299.934 239.153 300.042 238.644 300.259 238.21C300.481 237.776 300.78 237.404 301.155 237.094C301.53 236.777 301.943 236.508 302.395 236.285C302.014 236.045 301.665 235.772 301.349 235.468C301.038 235.163 300.789 234.814 300.602 234.422C300.42 234.029 300.329 233.578 300.329 233.068C300.329 232.389 300.52 231.82 300.9 231.363C301.287 230.906 301.794 230.563 302.421 230.335C303.048 230.101 303.725 229.983 304.451 229.983ZM302.447 239.581C302.447 240.044 302.611 240.428 302.939 240.732C303.273 241.031 303.766 241.181 304.416 241.181C305.09 241.181 305.594 241.037 305.928 240.75C306.262 240.457 306.429 240.073 306.429 239.599C306.429 239.271 306.332 238.983 306.139 238.737C305.951 238.491 305.714 238.271 305.427 238.078C305.14 237.879 304.85 237.694 304.557 237.524L304.319 237.401C303.944 237.571 303.616 237.762 303.335 237.973C303.06 238.184 302.843 238.421 302.685 238.685C302.526 238.948 302.447 239.247 302.447 239.581ZM304.434 231.97C303.988 231.97 303.619 232.084 303.326 232.312C303.033 232.541 302.887 232.863 302.887 233.279C302.887 233.572 302.957 233.83 303.098 234.053C303.244 234.27 303.435 234.46 303.669 234.624C303.909 234.788 304.17 234.94 304.451 235.081C304.721 234.952 304.973 234.809 305.207 234.65C305.441 234.492 305.632 234.302 305.778 234.079C305.925 233.856 305.998 233.59 305.998 233.279C305.998 232.863 305.849 232.541 305.55 232.312C305.257 232.084 304.885 231.97 304.434 231.97ZM313.188 229.966C314.195 229.966 314.96 230.317 315.481 231.021C316.003 231.724 316.264 232.711 316.264 233.982C316.264 235.254 316.018 236.247 315.525 236.962C315.033 237.677 314.254 238.034 313.188 238.034C312.197 238.034 311.444 237.677 310.929 236.962C310.413 236.247 310.155 235.254 310.155 233.982C310.155 232.711 310.396 231.724 310.876 231.021C311.362 230.317 312.133 229.966 313.188 229.966ZM313.205 231.803C312.918 231.803 312.707 231.984 312.572 232.348C312.438 232.711 312.37 233.262 312.37 234C312.37 234.738 312.438 235.292 312.572 235.661C312.707 236.03 312.918 236.215 313.205 236.215C313.492 236.215 313.703 236.033 313.838 235.67C313.979 235.301 314.049 234.744 314.049 234C314.049 233.262 313.979 232.711 313.838 232.348C313.703 231.984 313.492 231.803 313.205 231.803ZM322.311 230.15L315.183 243H313.073L320.201 230.15H322.311ZM322.188 235.099C323.195 235.099 323.96 235.45 324.481 236.153C325.003 236.856 325.264 237.844 325.264 239.115C325.264 240.381 325.018 241.371 324.525 242.086C324.033 242.801 323.254 243.158 322.188 243.158C321.197 243.158 320.444 242.801 319.929 242.086C319.413 241.371 319.155 240.381 319.155 239.115C319.155 237.844 319.396 236.856 319.876 236.153C320.362 235.45 321.133 235.099 322.188 235.099ZM322.205 236.936C321.918 236.936 321.707 237.117 321.572 237.48C321.438 237.844 321.37 238.395 321.37 239.133C321.37 239.871 321.438 240.425 321.572 240.794C321.707 241.163 321.918 241.348 322.205 241.348C322.492 241.348 322.703 241.166 322.838 240.803C322.979 240.434 323.049 239.877 323.049 239.133C323.049 238.395 322.979 237.844 322.838 237.48C322.703 237.117 322.492 236.936 322.205 236.936Z" fill="white"/>
<path d="M15.7185 221.963C10.3838 223.393 7.19064 228.887 8.91763 234.133C13.7935 248.944 20.5964 263.049 29.1509 276.086C32.1809 280.704 38.4686 281.625 42.9085 278.341L82.5918 248.982C87.0316 245.698 87.9241 239.457 85.0621 234.733C81.4856 228.83 78.4805 222.6 76.088 216.126C74.1735 210.945 68.7339 207.758 63.3992 209.187L15.7185 221.963Z" fill="#A2D39D"/>
<path d="M11.5565 155.723C6.08486 154.973 1.01136 158.8 0.569643 164.305C-0.677452 179.848 0.1252 195.487 2.9569 210.821C3.95988 216.252 9.39849 219.539 14.7645 218.233L62.7259 206.554C68.0919 205.247 71.334 199.84 70.527 194.377C69.5184 187.549 69.1639 180.64 69.4682 173.745C69.7117 168.228 65.933 163.181 60.4614 162.431L11.5565 155.723Z" fill="#CAE0ED"/>
<path d="M30.3965 239.616C31.1816 239.616 31.8789 239.766 32.4883 240.064C33.1035 240.363 33.5869 240.803 33.9385 241.383C34.29 241.963 34.4658 242.678 34.4658 243.527C34.4658 244.453 34.2725 245.253 33.8857 245.927C33.5049 246.595 32.9336 247.107 32.1719 247.465C31.416 247.822 30.4727 248.001 29.3418 248.001C28.668 248.001 28.0322 247.942 27.4346 247.825C26.8428 247.714 26.3242 247.541 25.8789 247.307V244.96C26.3242 245.194 26.8574 245.394 27.4785 245.558C28.1055 245.716 28.6943 245.795 29.2451 245.795C29.7842 245.795 30.2383 245.725 30.6074 245.584C30.9766 245.438 31.2549 245.215 31.4424 244.916C31.6357 244.611 31.7324 244.225 31.7324 243.756C31.7324 243.129 31.5215 242.648 31.0996 242.314C30.6777 241.98 30.0303 241.813 29.1572 241.813C28.8232 241.813 28.4746 241.846 28.1113 241.91C27.7539 241.975 27.4551 242.039 27.2148 242.104L26.1338 241.523L26.6172 234.976H33.5869V237.278H28.999L28.7617 239.801C28.9609 239.76 29.1777 239.719 29.4121 239.678C29.6465 239.637 29.9746 239.616 30.3965 239.616ZM36.3291 246.568C36.3291 246.018 36.4785 245.631 36.7773 245.408C37.082 245.186 37.4482 245.074 37.876 245.074C38.292 245.074 38.6494 245.186 38.9482 245.408C39.2529 245.631 39.4053 246.018 39.4053 246.568C39.4053 247.096 39.2529 247.477 38.9482 247.711C38.6494 247.945 38.292 248.062 37.876 248.062C37.4482 248.062 37.082 247.945 36.7773 247.711C36.4785 247.477 36.3291 247.096 36.3291 246.568ZM50.4268 245.162H48.8799V247.825H46.2256V245.162H40.7412V243.272L46.375 234.976H48.8799V243.053H50.4268V245.162ZM46.2256 243.053V240.873C46.2256 240.668 46.2285 240.425 46.2344 240.144C46.2461 239.862 46.2578 239.581 46.2695 239.3C46.2812 239.019 46.293 238.77 46.3047 238.553C46.3223 238.33 46.334 238.175 46.3398 238.087H46.2695C46.1582 238.327 46.041 238.562 45.918 238.79C45.7949 239.013 45.6514 239.247 45.4873 239.493L43.1318 243.053H46.2256ZM54.3203 234.791C55.3281 234.791 56.0928 235.143 56.6143 235.846C57.1357 236.549 57.3965 237.536 57.3965 238.808C57.3965 240.079 57.1504 241.072 56.6582 241.787C56.166 242.502 55.3867 242.859 54.3203 242.859C53.3301 242.859 52.5771 242.502 52.0615 241.787C51.5459 241.072 51.2881 240.079 51.2881 238.808C51.2881 237.536 51.5283 236.549 52.0088 235.846C52.4951 235.143 53.2656 234.791 54.3203 234.791ZM54.3379 236.628C54.0508 236.628 53.8398 236.81 53.7051 237.173C53.5703 237.536 53.5029 238.087 53.5029 238.825C53.5029 239.563 53.5703 240.117 53.7051 240.486C53.8398 240.855 54.0508 241.04 54.3379 241.04C54.625 241.04 54.8359 240.858 54.9707 240.495C55.1113 240.126 55.1816 239.569 55.1816 238.825C55.1816 238.087 55.1113 237.536 54.9707 237.173C54.8359 236.81 54.625 236.628 54.3379 236.628ZM63.4434 234.976L56.3154 247.825H54.2061L61.334 234.976H63.4434ZM63.3203 239.924C64.3281 239.924 65.0928 240.275 65.6143 240.979C66.1357 241.682 66.3965 242.669 66.3965 243.94C66.3965 245.206 66.1504 246.196 65.6582 246.911C65.166 247.626 64.3867 247.983 63.3203 247.983C62.3301 247.983 61.5771 247.626 61.0615 246.911C60.5459 246.196 60.2881 245.206 60.2881 243.94C60.2881 242.669 60.5283 241.682 61.0088 240.979C61.4951 240.275 62.2656 239.924 63.3203 239.924ZM63.3379 241.761C63.0508 241.761 62.8398 241.942 62.7051 242.306C62.5703 242.669 62.5029 243.22 62.5029 243.958C62.5029 244.696 62.5703 245.25 62.7051 245.619C62.8398 245.988 63.0508 246.173 63.3379 246.173C63.625 246.173 63.8359 245.991 63.9707 245.628C64.1113 245.259 64.1816 244.702 64.1816 243.958C64.1816 243.22 64.1113 242.669 63.9707 242.306C63.8359 241.942 63.625 241.761 63.3379 241.761Z" fill="#242424"/>
<path d="M13.3965 182.616C14.1816 182.616 14.8789 182.766 15.4883 183.064C16.1035 183.363 16.5869 183.803 16.9385 184.383C17.29 184.963 17.4658 185.678 17.4658 186.527C17.4658 187.453 17.2725 188.253 16.8857 188.927C16.5049 189.595 15.9336 190.107 15.1719 190.465C14.416 190.822 13.4727 191.001 12.3418 191.001C11.668 191.001 11.0322 190.942 10.4346 190.825C9.84277 190.714 9.32422 190.541 8.87891 190.307V187.96C9.32422 188.194 9.85742 188.394 10.4785 188.558C11.1055 188.716 11.6943 188.795 12.2451 188.795C12.7842 188.795 13.2383 188.725 13.6074 188.584C13.9766 188.438 14.2549 188.215 14.4424 187.916C14.6357 187.611 14.7324 187.225 14.7324 186.756C14.7324 186.129 14.5215 185.648 14.0996 185.314C13.6777 184.98 13.0303 184.813 12.1572 184.813C11.8232 184.813 11.4746 184.846 11.1113 184.91C10.7539 184.975 10.4551 185.039 10.2148 185.104L9.13379 184.523L9.61719 177.976H16.5869V180.278H11.999L11.7617 182.801C11.9609 182.76 12.1777 182.719 12.4121 182.678C12.6465 182.637 12.9746 182.616 13.3965 182.616ZM19.3291 189.568C19.3291 189.018 19.4785 188.631 19.7773 188.408C20.082 188.186 20.4482 188.074 20.876 188.074C21.292 188.074 21.6494 188.186 21.9482 188.408C22.2529 188.631 22.4053 189.018 22.4053 189.568C22.4053 190.096 22.2529 190.477 21.9482 190.711C21.6494 190.945 21.292 191.062 20.876 191.062C20.4482 191.062 20.082 190.945 19.7773 190.711C19.4785 190.477 19.3291 190.096 19.3291 189.568ZM28.584 177.809C29.3223 177.809 30.002 177.923 30.623 178.151C31.25 178.38 31.751 178.726 32.126 179.188C32.501 179.646 32.6885 180.22 32.6885 180.911C32.6885 181.427 32.5859 181.878 32.3809 182.265C32.1816 182.651 31.9092 182.991 31.5635 183.284C31.2178 183.571 30.8252 183.823 30.3857 184.04C30.8428 184.28 31.2764 184.562 31.6865 184.884C32.0967 185.2 32.4307 185.572 32.6885 186C32.9521 186.428 33.084 186.926 33.084 187.494C33.084 188.209 32.8936 188.83 32.5127 189.357C32.1318 189.879 31.6045 190.283 30.9307 190.57C30.2568 190.857 29.4746 191.001 28.584 191.001C27.623 191.001 26.8057 190.863 26.1318 190.588C25.458 190.312 24.9453 189.92 24.5938 189.41C24.2422 188.895 24.0664 188.279 24.0664 187.564C24.0664 186.979 24.1748 186.469 24.3916 186.035C24.6143 185.602 24.9131 185.229 25.2881 184.919C25.6631 184.603 26.0762 184.333 26.5273 184.11C26.1465 183.87 25.7979 183.598 25.4814 183.293C25.1709 182.988 24.9219 182.64 24.7344 182.247C24.5527 181.854 24.4619 181.403 24.4619 180.894C24.4619 180.214 24.6523 179.646 25.0332 179.188C25.4199 178.731 25.9268 178.389 26.5537 178.16C27.1807 177.926 27.8574 177.809 28.584 177.809ZM26.5801 187.406C26.5801 187.869 26.7441 188.253 27.0723 188.558C27.4062 188.856 27.8984 189.006 28.5488 189.006C29.2227 189.006 29.7266 188.862 30.0605 188.575C30.3945 188.282 30.5615 187.898 30.5615 187.424C30.5615 187.096 30.4648 186.809 30.2715 186.562C30.084 186.316 29.8467 186.097 29.5596 185.903C29.2725 185.704 28.9824 185.52 28.6895 185.35L28.4521 185.227C28.0771 185.396 27.749 185.587 27.4678 185.798C27.1924 186.009 26.9756 186.246 26.8174 186.51C26.6592 186.773 26.5801 187.072 26.5801 187.406ZM28.5664 179.795C28.1211 179.795 27.752 179.909 27.459 180.138C27.166 180.366 27.0195 180.688 27.0195 181.104C27.0195 181.397 27.0898 181.655 27.2305 181.878C27.377 182.095 27.5674 182.285 27.8018 182.449C28.042 182.613 28.3027 182.766 28.584 182.906C28.8535 182.777 29.1055 182.634 29.3398 182.476C29.5742 182.317 29.7646 182.127 29.9111 181.904C30.0576 181.682 30.1309 181.415 30.1309 181.104C30.1309 180.688 29.9814 180.366 29.6826 180.138C29.3896 179.909 29.0176 179.795 28.5664 179.795ZM37.3203 177.791C38.3281 177.791 39.0928 178.143 39.6143 178.846C40.1357 179.549 40.3965 180.536 40.3965 181.808C40.3965 183.079 40.1504 184.072 39.6582 184.787C39.166 185.502 38.3867 185.859 37.3203 185.859C36.3301 185.859 35.5771 185.502 35.0615 184.787C34.5459 184.072 34.2881 183.079 34.2881 181.808C34.2881 180.536 34.5283 179.549 35.0088 178.846C35.4951 178.143 36.2656 177.791 37.3203 177.791ZM37.3379 179.628C37.0508 179.628 36.8398 179.81 36.7051 180.173C36.5703 180.536 36.5029 181.087 36.5029 181.825C36.5029 182.563 36.5703 183.117 36.7051 183.486C36.8398 183.855 37.0508 184.04 37.3379 184.04C37.625 184.04 37.8359 183.858 37.9707 183.495C38.1113 183.126 38.1816 182.569 38.1816 181.825C38.1816 181.087 38.1113 180.536 37.9707 180.173C37.8359 179.81 37.625 179.628 37.3379 179.628ZM46.4434 177.976L39.3154 190.825H37.2061L44.334 177.976H46.4434ZM46.3203 182.924C47.3281 182.924 48.0928 183.275 48.6143 183.979C49.1357 184.682 49.3965 185.669 49.3965 186.94C49.3965 188.206 49.1504 189.196 48.6582 189.911C48.166 190.626 47.3867 190.983 46.3203 190.983C45.3301 190.983 44.5771 190.626 44.0615 189.911C43.5459 189.196 43.2881 188.206 43.2881 186.94C43.2881 185.669 43.5283 184.682 44.0088 183.979C44.4951 183.275 45.2656 182.924 46.3203 182.924ZM46.3379 184.761C46.0508 184.761 45.8398 184.942 45.7051 185.306C45.5703 185.669 45.5029 186.22 45.5029 186.958C45.5029 187.696 45.5703 188.25 45.7051 188.619C45.8398 188.988 46.0508 189.173 46.3379 189.173C46.625 189.173 46.8359 188.991 46.9707 188.628C47.1113 188.259 47.1816 187.702 47.1816 186.958C47.1816 186.22 47.1113 185.669 46.9707 185.306C46.8359 184.942 46.625 184.761 46.3379 184.761Z" fill="#242424"/>
<path d="M189.18 10.9915C189.504 5.47818 185.296 0.716385 179.773 0.702469C175.605 0.691965 171.437 0.828039 167.278 1.11044C161.768 1.48459 157.879 6.51076 158.563 11.9912L164.68 61.0612C165.358 66.4938 170.314 70.301 175.786 70.1224C181.257 69.9437 185.955 65.8213 186.276 60.3561L189.18 10.9915Z" fill="#C6D2FD"/>
<path d="M14.3558 147.699C8.9269 146.684 5.32021 141.452 6.6382 136.089C14.4913 104.132 31.0787 74.9111 54.6334 51.7448C78.188 28.5785 107.681 12.4792 139.763 5.15846C145.148 3.92982 150.32 7.62299 151.244 13.068L159.503 61.7348C160.427 67.1797 156.745 72.2973 151.408 73.7188C133.309 78.5398 116.706 87.984 103.271 101.198C89.8356 114.411 80.1167 130.855 74.9955 148.872C73.4855 154.184 68.3074 157.781 62.8785 156.766L14.3558 147.699Z" fill="#5DBED0"/>
<path d="M161.436 25H158.72V17.5645C158.72 17.3594 158.723 17.1074 158.729 16.8086C158.734 16.5039 158.743 16.1934 158.755 15.877C158.767 15.5547 158.778 15.2646 158.79 15.0068C158.726 15.083 158.594 15.2148 158.395 15.4023C158.201 15.584 158.02 15.748 157.85 15.8945L156.373 17.0811L155.063 15.4463L159.203 12.1504H161.436V25ZM165.329 23.7432C165.329 23.1924 165.479 22.8057 165.777 22.583C166.082 22.3604 166.448 22.249 166.876 22.249C167.292 22.249 167.649 22.3604 167.948 22.583C168.253 22.8057 168.405 23.1924 168.405 23.7432C168.405 24.2705 168.253 24.6514 167.948 24.8857C167.649 25.1201 167.292 25.2373 166.876 25.2373C166.448 25.2373 166.082 25.1201 165.777 24.8857C165.479 24.6514 165.329 24.2705 165.329 23.7432ZM179.084 17.6348C179.084 18.373 179.028 19.1055 178.917 19.832C178.812 20.5586 178.624 21.2441 178.354 21.8887C178.085 22.5273 177.707 23.0957 177.221 23.5938C176.734 24.0859 176.116 24.4727 175.366 24.7539C174.616 25.0352 173.708 25.1758 172.642 25.1758C172.39 25.1758 172.094 25.1641 171.754 25.1406C171.414 25.123 171.133 25.0938 170.91 25.0527V22.873C171.145 22.9316 171.394 22.9785 171.657 23.0137C171.921 23.043 172.188 23.0576 172.457 23.0576C173.529 23.0576 174.355 22.8877 174.936 22.5479C175.521 22.208 175.932 21.7363 176.166 21.1328C176.406 20.5293 176.544 19.832 176.579 19.041H176.474C176.304 19.3223 176.102 19.5771 175.867 19.8057C175.639 20.0283 175.346 20.207 174.988 20.3418C174.631 20.4707 174.177 20.5352 173.626 20.5352C172.894 20.5352 172.255 20.377 171.71 20.0605C171.171 19.7383 170.752 19.2754 170.453 18.6719C170.16 18.0625 170.014 17.3271 170.014 16.4658C170.014 15.5342 170.189 14.7373 170.541 14.0752C170.898 13.4072 171.405 12.8945 172.062 12.5371C172.718 12.1797 173.491 12.001 174.382 12.001C175.038 12.001 175.65 12.1152 176.219 12.3438C176.787 12.5664 177.285 12.9092 177.713 13.3721C178.146 13.835 178.483 14.4209 178.724 15.1299C178.964 15.8389 179.084 16.6738 179.084 17.6348ZM174.435 14.1807C173.907 14.1807 173.477 14.3623 173.143 14.7256C172.809 15.0889 172.642 15.6572 172.642 16.4307C172.642 17.0518 172.785 17.5439 173.072 17.9072C173.359 18.2705 173.796 18.4521 174.382 18.4521C174.786 18.4521 175.138 18.3643 175.437 18.1885C175.735 18.0068 175.967 17.7812 176.131 17.5117C176.301 17.2363 176.386 16.9551 176.386 16.668C176.386 16.3691 176.345 16.0732 176.263 15.7803C176.181 15.4873 176.058 15.2207 175.894 14.9805C175.729 14.7402 175.524 14.5469 175.278 14.4004C175.038 14.2539 174.757 14.1807 174.435 14.1807ZM183.32 11.9658C184.328 11.9658 185.093 12.3174 185.614 13.0205C186.136 13.7236 186.396 14.7109 186.396 15.9824C186.396 17.2539 186.15 18.2471 185.658 18.9619C185.166 19.6768 184.387 20.0342 183.32 20.0342C182.33 20.0342 181.577 19.6768 181.062 18.9619C180.546 18.2471 180.288 17.2539 180.288 15.9824C180.288 14.7109 180.528 13.7236 181.009 13.0205C181.495 12.3174 182.266 11.9658 183.32 11.9658ZM183.338 13.8027C183.051 13.8027 182.84 13.9844 182.705 14.3477C182.57 14.7109 182.503 15.2617 182.503 16C182.503 16.7383 182.57 17.292 182.705 17.6611C182.84 18.0303 183.051 18.2148 183.338 18.2148C183.625 18.2148 183.836 18.0332 183.971 17.6699C184.111 17.3008 184.182 16.7441 184.182 16C184.182 15.2617 184.111 14.7109 183.971 14.3477C183.836 13.9844 183.625 13.8027 183.338 13.8027ZM192.443 12.1504L185.315 25H183.206L190.334 12.1504H192.443ZM192.32 17.0986C193.328 17.0986 194.093 17.4502 194.614 18.1533C195.136 18.8564 195.396 19.8438 195.396 21.1152C195.396 22.3809 195.15 23.3711 194.658 24.0859C194.166 24.8008 193.387 25.1582 192.32 25.1582C191.33 25.1582 190.577 24.8008 190.062 24.0859C189.546 23.3711 189.288 22.3809 189.288 21.1152C189.288 19.8438 189.528 18.8564 190.009 18.1533C190.495 17.4502 191.266 17.0986 192.32 17.0986ZM192.338 18.9355C192.051 18.9355 191.84 19.1172 191.705 19.4805C191.57 19.8438 191.503 20.3945 191.503 21.1328C191.503 21.8711 191.57 22.4248 191.705 22.7939C191.84 23.1631 192.051 23.3477 192.338 23.3477C192.625 23.3477 192.836 23.166 192.971 22.8027C193.111 22.4336 193.182 21.877 193.182 21.1328C193.182 20.3945 193.111 19.8438 192.971 19.4805C192.836 19.1172 192.625 18.9355 192.338 18.9355Z" fill="#242424"/>
<path d="M62.4355 79H59.7197V71.5645C59.7197 71.3594 59.7227 71.1074 59.7285 70.8086C59.7344 70.5039 59.7432 70.1934 59.7549 69.877C59.7666 69.5547 59.7783 69.2646 59.79 69.0068C59.7256 69.083 59.5938 69.2148 59.3945 69.4023C59.2012 69.584 59.0195 69.748 58.8496 69.8945L57.373 71.0811L56.0635 69.4463L60.2031 66.1504H62.4355V79ZM70.6973 70.791C71.4824 70.791 72.1797 70.9404 72.7891 71.2393C73.4043 71.5381 73.8877 71.9775 74.2393 72.5576C74.5908 73.1377 74.7666 73.8525 74.7666 74.7021C74.7666 75.6279 74.5732 76.4277 74.1865 77.1016C73.8057 77.7695 73.2344 78.2822 72.4727 78.6396C71.7168 78.9971 70.7734 79.1758 69.6426 79.1758C68.9688 79.1758 68.333 79.1172 67.7354 79C67.1436 78.8887 66.625 78.7158 66.1797 78.4814V76.1348C66.625 76.3691 67.1582 76.5684 67.7793 76.7324C68.4062 76.8906 68.9951 76.9697 69.5459 76.9697C70.085 76.9697 70.5391 76.8994 70.9082 76.7588C71.2773 76.6123 71.5557 76.3896 71.7432 76.0908C71.9365 75.7861 72.0332 75.3994 72.0332 74.9307C72.0332 74.3037 71.8223 73.8232 71.4004 73.4893C70.9785 73.1553 70.3311 72.9883 69.458 72.9883C69.124 72.9883 68.7754 73.0205 68.4121 73.085C68.0547 73.1494 67.7559 73.2139 67.5156 73.2783L66.4346 72.6982L66.918 66.1504H73.8877V68.4531H69.2998L69.0625 70.9756C69.2617 70.9346 69.4785 70.8936 69.7129 70.8525C69.9473 70.8115 70.2754 70.791 70.6973 70.791ZM76.6299 77.7432C76.6299 77.1924 76.7793 76.8057 77.0781 76.583C77.3828 76.3604 77.749 76.249 78.1768 76.249C78.5928 76.249 78.9502 76.3604 79.249 76.583C79.5537 76.8057 79.7061 77.1924 79.7061 77.7432C79.7061 78.2705 79.5537 78.6514 79.249 78.8857C78.9502 79.1201 78.5928 79.2373 78.1768 79.2373C77.749 79.2373 77.3828 79.1201 77.0781 78.8857C76.7793 78.6514 76.6299 78.2705 76.6299 77.7432ZM85.8848 65.9834C86.623 65.9834 87.3027 66.0977 87.9238 66.3262C88.5508 66.5547 89.0518 66.9004 89.4268 67.3633C89.8018 67.8203 89.9893 68.3945 89.9893 69.0859C89.9893 69.6016 89.8867 70.0527 89.6816 70.4395C89.4824 70.8262 89.21 71.166 88.8643 71.459C88.5186 71.7461 88.126 71.998 87.6865 72.2148C88.1436 72.4551 88.5771 72.7363 88.9873 73.0586C89.3975 73.375 89.7314 73.7471 89.9893 74.1748C90.2529 74.6025 90.3848 75.1006 90.3848 75.6689C90.3848 76.3838 90.1943 77.0049 89.8135 77.5322C89.4326 78.0537 88.9053 78.458 88.2314 78.7451C87.5576 79.0322 86.7754 79.1758 85.8848 79.1758C84.9238 79.1758 84.1064 79.0381 83.4326 78.7627C82.7588 78.4873 82.2461 78.0947 81.8945 77.585C81.543 77.0693 81.3672 76.4541 81.3672 75.7393C81.3672 75.1533 81.4756 74.6436 81.6924 74.21C81.915 73.7764 82.2139 73.4043 82.5889 73.0938C82.9639 72.7773 83.377 72.5078 83.8281 72.2852C83.4473 72.0449 83.0986 71.7725 82.7822 71.4678C82.4717 71.1631 82.2227 70.8145 82.0352 70.4219C81.8535 70.0293 81.7627 69.5781 81.7627 69.0684C81.7627 68.3887 81.9531 67.8203 82.334 67.3633C82.7207 66.9062 83.2275 66.5635 83.8545 66.335C84.4814 66.1006 85.1582 65.9834 85.8848 65.9834ZM83.8809 75.5811C83.8809 76.0439 84.0449 76.4277 84.373 76.7324C84.707 77.0312 85.1992 77.1807 85.8496 77.1807C86.5234 77.1807 87.0273 77.0371 87.3613 76.75C87.6953 76.457 87.8623 76.0732 87.8623 75.5986C87.8623 75.2705 87.7656 74.9834 87.5723 74.7373C87.3848 74.4912 87.1475 74.2715 86.8604 74.0781C86.5732 73.8789 86.2832 73.6943 85.9902 73.5244L85.7529 73.4014C85.3779 73.5713 85.0498 73.7617 84.7686 73.9727C84.4932 74.1836 84.2764 74.4209 84.1182 74.6846C83.96 74.9482 83.8809 75.2471 83.8809 75.5811ZM85.8672 67.9697C85.4219 67.9697 85.0527 68.084 84.7598 68.3125C84.4668 68.541 84.3203 68.8633 84.3203 69.2793C84.3203 69.5723 84.3906 69.8301 84.5312 70.0527C84.6777 70.2695 84.8682 70.46 85.1025 70.624C85.3428 70.7881 85.6035 70.9404 85.8848 71.0811C86.1543 70.9521 86.4062 70.8086 86.6406 70.6504C86.875 70.4922 87.0654 70.3018 87.2119 70.0791C87.3584 69.8564 87.4316 69.5898 87.4316 69.2793C87.4316 68.8633 87.2822 68.541 86.9834 68.3125C86.6904 68.084 86.3184 67.9697 85.8672 67.9697ZM94.6211 65.9658C95.6289 65.9658 96.3936 66.3174 96.915 67.0205C97.4365 67.7236 97.6973 68.7109 97.6973 69.9824C97.6973 71.2539 97.4512 72.2471 96.959 72.9619C96.4668 73.6768 95.6875 74.0342 94.6211 74.0342C93.6309 74.0342 92.8779 73.6768 92.3623 72.9619C91.8467 72.2471 91.5889 71.2539 91.5889 69.9824C91.5889 68.7109 91.8291 67.7236 92.3096 67.0205C92.7959 66.3174 93.5664 65.9658 94.6211 65.9658ZM94.6387 67.8027C94.3516 67.8027 94.1406 67.9844 94.0059 68.3477C93.8711 68.7109 93.8037 69.2617 93.8037 70C93.8037 70.7383 93.8711 71.292 94.0059 71.6611C94.1406 72.0303 94.3516 72.2148 94.6387 72.2148C94.9258 72.2148 95.1367 72.0332 95.2715 71.6699C95.4121 71.3008 95.4824 70.7441 95.4824 70C95.4824 69.2617 95.4121 68.7109 95.2715 68.3477C95.1367 67.9844 94.9258 67.8027 94.6387 67.8027ZM103.744 66.1504L96.6162 79H94.5068L101.635 66.1504H103.744ZM103.621 71.0986C104.629 71.0986 105.394 71.4502 105.915 72.1533C106.437 72.8564 106.697 73.8438 106.697 75.1152C106.697 76.3809 106.451 77.3711 105.959 78.0859C105.467 78.8008 104.688 79.1582 103.621 79.1582C102.631 79.1582 101.878 78.8008 101.362 78.0859C100.847 77.3711 100.589 76.3809 100.589 75.1152C100.589 73.8438 100.829 72.8564 101.31 72.1533C101.796 71.4502 102.566 71.0986 103.621 71.0986ZM103.639 72.9355C103.352 72.9355 103.141 73.1172 103.006 73.4805C102.871 73.8438 102.804 74.3945 102.804 75.1328C102.804 75.8711 102.871 76.4248 103.006 76.7939C103.141 77.1631 103.352 77.3477 103.639 77.3477C103.926 77.3477 104.137 77.166 104.271 76.8027C104.412 76.4336 104.482 75.877 104.482 75.1328C104.482 74.3945 104.412 73.8438 104.271 73.4805C104.137 73.1172 103.926 72.9355 103.639 72.9355Z" fill="white"/>
</svg>
