<svg width="331" height="322" viewBox="0 0 331 322" fill="none" xmlns="http://www.w3.org/2000/svg" xmlns:xlink="http://www.w3.org/1999/xlink">
<path d="M191.324 42C268.465 42 331 104.535 331 181.675C331 258.816 268.465 321.351 191.324 321.351L69 321.351L69 42L191.324 42Z" fill="#F13997"/>
<path d="M0.463623 34.702C0.463623 15.5366 16.0002 0 35.1656 0H180.914C200.079 0 215.616 15.5366 215.616 34.702V286.291C215.616 305.457 200.079 320.993 180.914 320.993H35.1656C16.0002 320.993 0.463623 305.457 0.463623 286.291V34.702Z" fill="url(#pattern0_108_1641)"/>
<defs>
<pattern id="pattern0_108_1641" patternContentUnits="objectBoundingBox" width="1" height="1">
<use xlink:href="#image0_108_1641" transform="matrix(0.000364242 0 0 0.000244141 -0.0312471 0)"/>
</pattern>
</defs>
</svg>
