<svg width="129" height="36" viewBox="0 0 129 36" fill="none" xmlns="http://www.w3.org/2000/svg">
<path fill-rule="evenodd" clip-rule="evenodd" d="M56.3393 8.87974C55.2023 9.45413 55.2618 8.91728 55.2576 18.665L55.2539 27.476H57.1742H59.0944V24.1155V20.7551L61.8078 20.7516C64.8759 20.7479 66.179 20.5415 67.3341 19.8769C68.9979 18.9198 69.7039 17.3374 69.6852 14.6079C69.662 11.2457 68.4257 9.51118 65.6026 8.88089C63.9563 8.51321 57.0663 8.51255 56.3393 8.87974ZM64.5519 12.2217C65.461 12.6269 65.8375 13.3198 65.8485 14.6079C65.8582 15.7247 65.5802 16.3826 64.885 16.8881C64.4627 17.1953 64.1395 17.2364 61.7542 17.2861L59.0944 17.3415V14.6223V11.9032L61.4738 11.9068C63.4494 11.9097 63.9718 11.9632 64.5519 12.2217ZM83.8613 12.6308C82.4338 13.0692 81.3838 13.9483 80.8151 15.1816C80.2771 16.3483 80.2527 16.3291 82.2785 16.3291C83.8658 16.3291 84.1259 16.2894 84.3859 16.0075C84.8399 15.5149 85.7398 15.2951 86.9203 15.3882C88.2812 15.4954 88.8165 15.8244 88.8165 16.5534C88.8165 17.4894 88.2116 17.7861 85.4087 18.2251C82.7604 18.6398 81.1688 19.4093 80.568 20.5649C79.6665 22.2991 80.0043 24.9502 81.277 26.1279C81.8978 26.7024 83.2246 27.2483 84.3081 27.3748C85.8044 27.5499 88.3367 27.2376 89.4417 26.7419C92.0671 25.5641 92.7676 23.666 92.632 18.0962C92.5767 15.8216 92.5328 15.5162 92.155 14.773C91.3017 13.0955 89.5663 12.3864 86.361 12.4059C85.3698 12.412 84.2449 12.5131 83.8613 12.6308ZM76.8776 13.0567C73.7421 13.4819 71.7059 15.2115 71.0305 18.0236C70.8515 18.7683 70.7872 20.1431 70.7854 23.2549L70.7829 27.476H72.7031H74.6234V23.2487C74.6234 19.188 74.6383 18.9929 74.9991 18.2995C75.5852 17.1737 76.0746 16.9128 77.7297 16.8448L79.1422 16.7868L79.0952 14.8777L79.0483 12.9687L78.4639 12.9447C78.1424 12.9316 77.4286 12.9819 76.8776 13.0567ZM93.6589 13.0744C93.6589 13.4373 100.037 27.0686 100.301 27.2711C100.473 27.4029 101.146 27.476 102.186 27.476C103.284 27.476 103.855 27.4102 103.962 27.2711C104.049 27.1584 105.311 24.4843 106.767 21.3288C108.222 18.1733 109.662 15.0772 109.968 14.4486C110.274 13.8201 110.524 13.2114 110.524 13.0962C110.524 12.948 110.218 12.8879 109.48 12.8906C108.019 12.896 107.206 13.1169 106.666 13.654C106.407 13.9122 105.454 15.7041 104.509 17.7141C102.313 22.3797 102.18 22.6294 101.993 22.445C101.907 22.3612 100.977 20.4898 99.9261 18.2864C98.8748 16.0829 97.8048 14.0352 97.5483 13.736C97.014 13.1126 96.287 12.8965 94.7025 12.8906C94.0278 12.888 93.6589 12.9531 93.6589 13.0744ZM111.807 13.0021C111.605 13.3224 111.645 23.7713 111.85 24.5063C112.28 26.0415 113.527 27.2479 114.782 27.3434L115.45 27.394V21.5747V15.7554L114.931 14.8538C114.646 14.3579 114.119 13.7475 113.76 13.4973C113.077 13.0221 111.971 12.7415 111.807 13.0021ZM88.949 21.1365C88.8045 23.3443 87.7329 24.4339 85.6992 24.4401C84.8378 24.4429 84.5988 24.3786 84.2407 24.0483C83.361 23.237 83.5672 21.7106 84.6294 21.1713C84.9049 21.0314 85.7156 20.7772 86.4308 20.6062C87.1459 20.4354 87.919 20.2192 88.1486 20.1259C88.9897 19.784 89.0338 19.8396 88.949 21.1365Z" fill="#0A0B0C"/>
<ellipse cx="113.553" cy="10.3236" rx="1.89706" ry="1.85294" fill="#ED2E92"/>
<path d="M19.1753 3.41595C21.2732 1.76163 24.5852 0.394659 27.2015 0.103366C31.4841 -0.37349 35.7125 0.808405 39.2299 3.46562C40.8748 4.70816 42.6428 6.95966 43.7313 9.19838C45.8875 13.6325 45.7492 18.5363 43.3387 23.1319C41.0658 27.465 37.3988 30.1709 32.3041 31.2741C31.0688 31.5418 30.363 31.5891 28.4538 31.5327C26.3823 31.4716 25.9354 31.4045 24.5298 30.9441C23.6573 30.6582 22.5678 30.2217 22.1086 29.974L21.2737 29.5238L21.2301 22.3992C21.2041 18.138 21.254 14.9102 21.3544 14.3676C21.7421 12.2708 23.3676 10.0273 25.2759 8.95561C26.973 8.00222 29.1806 7.72437 31.1196 8.22024C34.1883 9.00495 36.7847 11.8302 37.0139 14.6343L37.0989 15.6734H35.2511H33.4034L33.1454 14.8023C32.6099 12.9937 31.2939 11.923 29.4186 11.7704C27.8179 11.64 26.1326 12.5978 25.3109 14.105C24.9563 14.7552 24.9472 14.9213 24.9476 20.7906C24.9481 26.0665 24.9808 26.8414 25.2129 27.0692C25.9656 27.8084 29.8274 28.0372 32.0916 27.4771C40.4445 25.4108 44.1295 15.7221 39.1608 8.89069C37.0997 6.05726 34.1913 4.37999 30.4418 3.86297C28.291 3.56643 25.6703 4.03624 23.538 5.1006C21.1917 6.27151 19.3259 8.18467 18.1028 10.6737C16.857 13.2091 16.8488 13.294 16.8488 23.6765C16.8488 33.7995 16.8545 33.7395 15.798 34.8309C15.1822 35.4673 14.1346 35.9911 13.4675 35.9964L13.0083 36V25.7915C13.0083 15.5896 13.0826 13.8887 13.6226 11.7436C14.4143 8.59858 16.4227 5.58664 19.1753 3.41595Z" fill="#ED2E92"/>
<path d="M27.8557 17.351C27.0388 16.4537 27.2452 15.1146 28.2868 14.5523C29.3954 13.9538 30.875 14.8649 30.875 16.1461C30.875 16.6543 30.7576 16.9448 30.3877 17.351C29.9695 17.8106 29.7903 17.8864 29.1217 17.8864C28.4531 17.8864 28.274 17.8106 27.8557 17.351Z" fill="#ED2E92"/>
</svg>
