<svg width="56" height="57" viewBox="0 0 56 57" fill="none" xmlns="http://www.w3.org/2000/svg">
<path d="M0 28.351C0 12.887 12.536 0.350952 28 0.350952C43.464 0.350952 56 12.887 56 28.351C56 43.8149 43.464 56.351 28 56.351C12.536 56.351 0 43.8149 0 28.351Z" fill="#FFCAE3"/>
<path d="M23.5387 35.333V33.443L29.0827 28.502C29.5147 28.118 29.8147 27.755 29.9827 27.413C30.1507 27.071 30.2347 26.741 30.2347 26.423C30.2347 25.991 30.1417 25.607 29.9557 25.271C29.7697 24.929 29.5117 24.659 29.1817 24.461C28.8577 24.263 28.4827 24.164 28.0567 24.164C27.6067 24.164 27.2077 24.269 26.8597 24.479C26.5177 24.683 26.2507 24.956 26.0587 25.298C25.8667 25.64 25.7767 26.009 25.7887 26.405H23.5567C23.5567 25.541 23.7487 24.788 24.1327 24.146C24.5227 23.504 25.0567 23.006 25.7347 22.652C26.4187 22.298 27.2077 22.121 28.1017 22.121C28.9297 22.121 29.6737 22.307 30.3337 22.679C30.9937 23.045 31.5127 23.555 31.8907 24.209C32.2687 24.857 32.4577 25.604 32.4577 26.45C32.4577 27.068 32.3737 27.587 32.2057 28.007C32.0377 28.427 31.7857 28.814 31.4497 29.168C31.1197 29.522 30.7087 29.915 30.2167 30.347L26.2837 33.83L26.0857 33.29H32.4577V35.333H23.5387Z" fill="#242424"/>
</svg>
