<svg width="25" height="25" viewBox="0 0 25 25" fill="none" xmlns="http://www.w3.org/2000/svg">
<g clip-path="url(#clip0_1_4374)">
<path d="M3.5 21.3525L5.15 17.5525C3.88766 15.7606 3.32267 13.5695 3.56104 11.3906C3.79942 9.21169 4.82479 7.19465 6.44471 5.71803C8.06463 4.24141 10.1677 3.40672 12.3594 3.37061C14.551 3.33449 16.6805 4.09944 18.3482 5.52188C20.0159 6.94433 21.1071 8.92649 21.4172 11.0964C21.7272 13.2663 21.2347 15.4747 20.0321 17.3073C18.8295 19.1398 16.9994 20.4705 14.8854 21.0496C12.7713 21.6287 10.5186 21.4164 8.55 20.4525L3.5 21.3525Z" stroke="#242424" stroke-width="2" stroke-linecap="round" stroke-linejoin="round"/>
<path d="M9.5 10.3525C9.5 10.4851 9.55268 10.6123 9.64645 10.7061C9.74021 10.7999 9.86739 10.8525 10 10.8525C10.1326 10.8525 10.2598 10.7999 10.3536 10.7061C10.4473 10.6123 10.5 10.4851 10.5 10.3525V9.35254C10.5 9.21993 10.4473 9.09275 10.3536 8.99899C10.2598 8.90522 10.1326 8.85254 10 8.85254C9.86739 8.85254 9.74021 8.90522 9.64645 8.99899C9.55268 9.09275 9.5 9.21993 9.5 9.35254V10.3525ZM9.5 10.3525C9.5 11.6786 10.0268 12.9504 10.9645 13.8881C11.9021 14.8258 13.1739 15.3525 14.5 15.3525M14.5 15.3525H15.5C15.6326 15.3525 15.7598 15.2999 15.8536 15.2061C15.9473 15.1123 16 14.9851 16 14.8525C16 14.7199 15.9473 14.5928 15.8536 14.499C15.7598 14.4052 15.6326 14.3525 15.5 14.3525H14.5C14.3674 14.3525 14.2402 14.4052 14.1464 14.499C14.0527 14.5928 14 14.7199 14 14.8525C14 14.9851 14.0527 15.1123 14.1464 15.2061C14.2402 15.2999 14.3674 15.3525 14.5 15.3525Z" stroke="#242424" stroke-width="2" stroke-linecap="round" stroke-linejoin="round"/>
</g>
<defs>
<clipPath id="clip0_1_4374">
<rect width="24" height="24" fill="white" transform="translate(0.5 0.352539)"/>
</clipPath>
</defs>
</svg>
